<?xml version="1.0" encoding="utf-8"?>
<!-- Generator: Adobe Illustrator 26.0.3, SVG Export Plug-In . SVG Version: 6.00 Build 0)  -->
<svg version="1.1" xmlns="http://www.w3.org/2000/svg" xmlns:xlink="http://www.w3.org/1999/xlink" x="0px" y="0px"
	 viewBox="0 0 250 250" style="enable-background:new 0 0 250 250;" xml:space="preserve">
<style type="text/css">
	.st0{stroke:#000000;stroke-miterlimit:10;}
	.st1{fill:#282727;}
	.st2{fill:#0A0A0A;}
</style>
<g id="Слой_1">
	<path class="st0" d="M43.67,62.55H23c-2.73,0-4.94-2.21-4.94-4.94V40.87c0-2.73,2.21-4.94,4.94-4.94h20.67
		c2.73,0,4.94,2.21,4.94,4.94v16.74C48.6,60.34,46.39,62.55,43.67,62.55z"/>
	<path class="st0" d="M68.83,74.88H35.28c-2.34,0-4.24-1.9-4.24-4.24V56.81c0-2.34,1.9-4.24,4.24-4.24h33.56
		c2.34,0,4.24,1.9,4.24,4.24v13.82C73.08,72.98,71.18,74.88,68.83,74.88z"/>
	<path class="st0" d="M187.46,94.45H50.76c-2.56,0-4.63-2.07-4.63-4.63V75.2c0-2.56,2.07-4.63,4.63-4.63h136.31
		c2.77,0,5.01,2.24,5.01,5.01v14.23C192.08,92.37,190.01,94.45,187.46,94.45z"/>
	<path class="st0" d="M193.79,176.73h11.44c2.94,0,5.32-2.38,5.32-5.32v-75.7c0-2.94-2.38-5.32-5.32-5.32h-11.44
		c-2.94,0-5.32,2.38-5.32,5.32v75.7C188.47,174.35,190.85,176.73,193.79,176.73z"/>
	<path class="st0" d="M51.14,178.97h12.08c2.76,0,5-2.24,5-5V90.23c0-2.76-2.24-5-5-5H51.14c-2.76,0-5,2.24-5,5v83.74
		C46.13,176.73,48.37,178.97,51.14,178.97z"/>
	<path class="st0" d="M185.87,199.04H71.33c-2.58,0-4.66-2.09-4.66-4.66v-17.02c0-2.58,2.09-4.66,4.66-4.66h114.54
		c2.58,0,4.66,2.09,4.66,4.66v17.02C190.54,196.96,188.45,199.04,185.87,199.04z"/>
	<rect x="86.33" y="94.45" class="st0" width="20.1" height="78.24"/>
	<rect x="122.68" y="94.45" class="st0" width="20.1" height="78.24"/>
	<rect x="159.21" y="94.45" class="st0" width="20.1" height="78.24"/>
	<rect x="83.29" y="199.04" class="st1" width="23.13" height="12.26"/>
	<rect x="106.42" y="211.31" class="st1" width="13.47" height="21.4"/>
	
		<rect x="83.29" y="232.7" transform="matrix(-1 5.363964e-11 -5.363964e-11 -1 189.7168 477.6687)" class="st1" width="23.13" height="12.26"/>
	
		<rect x="69.82" y="211.31" transform="matrix(-1 3.888477e-11 -3.888477e-11 -1 153.117 444.0096)" class="st1" width="13.47" height="21.4"/>
	<rect x="147.64" y="199.04" class="st1" width="23.13" height="12.26"/>
	<rect x="170.77" y="211.31" class="st1" width="13.47" height="21.4"/>
	
		<rect x="147.64" y="232.7" transform="matrix(-1 5.379685e-11 -5.379685e-11 -1 318.4146 477.6687)" class="st1" width="23.13" height="12.26"/>
	
		<rect x="134.17" y="211.31" transform="matrix(-1 3.888477e-11 -3.888477e-11 -1 281.8149 444.0096)" class="st1" width="13.47" height="21.4"/>
	<path class="st2" d="M90.9,223.68h-7.6v-12.38h12.38v7.6C95.67,221.55,93.53,223.68,90.9,223.68z"/>
	<path class="st2" d="M170.77,232.7h-12.38v-7.09c0-2.92,2.37-5.28,5.28-5.28h7.09V232.7z"/>
</g>
<g id="Слой_2">
</g>
</svg>
