<?xml version="1.0" encoding="utf-8"?>
<!-- Generator: Adobe Illustrator 26.0.3, SVG Export Plug-In . SVG Version: 6.00 Build 0)  -->
<svg version="1.1" xmlns="http://www.w3.org/2000/svg" xmlns:xlink="http://www.w3.org/1999/xlink" x="0px" y="0px"
	 viewBox="0 0 250 250" style="enable-background:new 0 0 250 250;" xml:space="preserve">
<style type="text/css">
	.st0{fill:none;stroke:#000000;stroke-miterlimit:10;}
	.st1{fill:#FFFFFF;stroke:#000000;stroke-miterlimit:10;}
</style>
<g id="Слой_1">
	<path class="st0" d="M118.72,54.19c-5.97,2.66-1.94,14.31-5.23,19.48c-3.69,10.44-4.88,22.38-4.51,33.68
		c-1.28,9.54-1.24,20.75-1.55,30.26c0.54-0.19,1.33-0.52,2.15-1.13c0.69-0.51,0.7-0.71,1.23-1c1.38-0.78,2.91-0.36,3.03-0.32
		c1.21,0.35,1.88,1.17,2.11,1.47c0.48,0.59,1,1.2,1.56,1.81c0.41,0.45,0.82,0.89,1.22,1.3c0.19-0.06,0.44-0.18,0.7-0.39
		c0.48-0.39,0.67-0.87,0.74-1.1c0.27-0.51,0.7-1.2,1.33-1.93c0.28-0.32,1.12-1.31,2.14-1.87c2.13-1.17,4.57-0.42,5.31-0.16
		c4.74,8.23,2.84,0.07,3.07-3.97c0.01-5.01,0.6-10.97,0.39-16c0-1.42,0-2.84,0-4.26c-0.1-1.29-0.26-3.22-0.51-5.56
		c-0.52-4.87-1.07-9.93-2.46-15.98c-0.51-2.2-1.3-5.3-2.52-8.97c0,0-0.62-1.28-0.62-1.28c-0.29-0.6-0.42-0.76-0.54-1.11
		c-0.18-0.55-0.17-0.97-0.19-1.37c-0.02-0.57-0.09-1.39-0.33-2.44c-0.99-4.05-1.47-7.21-2.13-9.29c-0.65-2.05-1.04-3.76-1.29-5.01
		c-0.44-2.21-0.58-3.79-1.79-4.51C119.56,54.26,119.07,54.2,118.72,54.19z"/>
	<path class="st1" d="M129.03,135.08"/>
	<path class="st1" d="M128.79,139.74l0.24-4.66L128.79,139.74z"/>
	<path class="st1" d="M128.11,140.79c-0.81,0.84-0.71,2.3-0.5,5.18c0.01,0.12,0.02,0.21,0.02,0.25c0.16,1.9,0.28,3.19,0.86,4.5
		c0.25,0.55,0.49,1.09,1.07,1.55c0.33,0.26,0.93,0.75,1.42,0.61c1.11-0.31,1.07-3.62,1.04-5.69c0,0-0.02-1.76-0.53-3.87
		c-0.03-0.13-0.1-0.42-0.24-0.77c-0.2-0.51-0.43-1.12-0.99-1.62c-0.27-0.25-0.72-0.65-1.28-0.59
		C128.53,140.36,128.23,140.67,128.11,140.79z"/>
	<line class="st1" x1="128.79" y1="140.32" x2="128.91" y2="134.13"/>
	<line class="st1" x1="109.19" y1="139.97" x2="109.19" y2="136.87"/>
	<path class="st1" d="M110.21,140.32"/>
	<path class="st1" d="M132.13,155.55c0.04,0.14,0.38,1.24,0.48,2c0.03,0.22,0.04,0.43,0.04,0.43c0.03,0.34,0.02,0.62,0.02,0.83
		c-0.01,1.14-0.01,2.8,0,4.97c0.08,0.46,0.14,1.13-0.03,1.9c-0.19,0.83-0.58,1.08-0.81,1.77c-0.24,0.73-0.85,2.59-0.19,4.61
		c0.26,0.81,0.64,1.38,1.06,2.03c0.51,0.77,1.02,1.35,1.84,2.61c0.16,0.25,0.24,0.37,0.29,0.45c0.71,1.16,0.67,1.48,1.03,1.65
		c0.3,0.14,0.35-0.07,1.16,0.03c0.41,0.05,0.67,0.09,0.87,0.29c0.25,0.24,0.27,0.58,0.29,0.87c0.01,0.12,0.02,0.48-0.23,1.26
		c-0.17,0.53-0.23,0.54-0.39,1c-0.14,0.43-0.32,0.95-0.29,1.52c0.03,0.58,0.25,0.74,0.58,1.55c0.14,0.33,0.26,0.87,0.52,1.94
		c0.04,0.16,0.36,1.54,0.55,2.74c0.29,1.89,0.01,2.16,0.19,5c0.13,2.06,0.26,3.07,0.42,3.97c0.34,1.93,0.71,2.94,1,3.58
		c0.3,0.68,0.35,0.62,0.48,1.03c0.54,1.68,0.09,3.79-0.81,4.03c-0.26,0.07-0.5-0.04-0.84-0.19c-0.67-0.31-1.01-0.83-1.39-1.42
		c-0.3-0.47-0.59-0.92-0.74-1.58c-0.03-0.15-0.4-1.67-0.23-2.45c0.01-0.06,0.05-0.23-0.03-0.35c-0.1-0.15-0.28-0.09-0.55-0.23
		c-0.13-0.07-0.23-0.16-0.42-0.35c-0.22-0.23-0.34-0.34-0.42-0.52c-0.03-0.07-0.08-0.18-0.1-0.71c-0.02-0.41-0.03-0.62,0-0.84
		c0.02-0.22,0.07-0.59,0.26-0.97c0.2-0.4,0.47-0.63,0.55-0.71c0.69-0.68,0.2-2.75-0.45-5.32c-1-3.97-0.94-3.5-0.97-3.71
		c-0.13-0.96-0.19-2.05-0.94-3.1c-0.22-0.31-0.32-0.37-0.52-0.71c-0.57-1-0.29-1.53-0.71-2.39c-0.37-0.74-0.66-0.5-1.19-1.35
		c-0.49-0.78-0.4-1.2-0.77-2.29c-0.34-0.96-0.48-0.84-1.1-2.16c-0.74-1.6-1.08-2.97-1.23-3.65c-0.19-0.87-0.26-1.55-0.32-2.19
		c-0.06-0.62-0.17-1.63-0.16-2.94c0.01-1.27,0.05-1.63-0.1-2.42c-0.13-0.68-0.33-1.22-0.48-1.58c-0.19-0.45-0.56-1.14-1.29-1.68
		c-0.33-0.24-0.73-0.53-1.29-0.55c-0.71-0.02-1.21,0.4-1.52,0.65c-0.77,0.63-1.05,1.43-1.29,2.1c-0.22,0.61-0.29,1.06-0.42,1.94
		c-0.1,0.64-0.14,1.22-0.23,2.35c-0.08,1.1-0.12,1.64-0.13,2.16c-0.02,1.34,0.11,1.38,0.06,2.45c-0.04,0.87-0.12,0.79-0.26,2.35
		c-0.1,1.15-0.06,1.18-0.16,2.1c-0.13,1.13-0.2,1.17-0.26,1.97c-0.06,0.89,0.03,0.9,0,2c-0.02,0.7-0.06,0.67-0.19,2.45
		c-0.08,1-0.12,1.51-0.13,2.03c-0.02,0.96,0.03,1.08,0,1.81c-0.03,0.69-0.11,1.18-0.26,2.13c-0.25,1.57-0.37,1.68-0.55,3
		c-0.03,0.24-0.01,0.07-0.19,1.71c-0.17,1.51-0.2,1.71-0.23,1.87c-0.17,1.08-0.3,1.27-0.48,2.23c-0.25,1.28-0.58,2.94-0.06,4.65
		c0.16,0.51,0.43,1.18,0.45,1.23c0.33,0.8,0.52,1.05,0.87,1.84c0.34,0.76,0.51,1.14,0.61,1.58c0.18,0.77-0.01,0.76,0.06,2.55
		c0.03,0.68-0.04,1.36,0,2.03c0.02,0.37,0.06,0.75-0.16,0.9c-0.25,0.18-0.72-0.04-0.77-0.06c-0.12-0.06-0.24-0.16-0.48-0.35
		c-0.33-0.27-0.33-0.3-0.48-0.42c-0.09-0.07-0.41-0.29-0.84-0.39c-0.31-0.07-0.55-0.04-0.94,0c-0.69,0.07-0.85,0.22-1,0.1
		c-0.12-0.1-0.1-0.25-0.06-1.13c0.03-0.84,0.02-0.72,0.03-0.9c0.08-0.86,0.24-0.95,0.19-1.42c-0.03-0.27-0.15-0.54-0.39-1.06
		c-0.31-0.69-0.5-0.97-0.68-1.32c-0.38-0.77-0.49-1.45-0.58-2c-0.12-0.74-0.07-1.43,0.03-2.77c0.06-0.83,0.13-1.7,0.32-2.87
		c0.26-1.59,0.55-2.87,0.55-2.87s0.15-0.69,0.26-1.68c0.08-0.75,0.07-1.11-0.1-1.48c-0.08-0.17-0.21-0.48-0.52-0.74
		c-0.22-0.19-0.34-0.19-0.48-0.39c-0.17-0.23-0.2-0.48-0.23-0.71c-0.03-0.3,0-0.57,0.06-0.87c0.13-0.59,0.34-1.03,0.52-1.35
		c0.35-0.67,0.61-0.99,0.84-1.35c0.52-0.81,0.72-1.53,0.94-2.29c0.3-1.04,0.33-1.9,0.39-3.58c0.01-0.37,0.04-1.18,0-3.23
		c-0.03-2.01-0.05-3.01-0.13-4.1c-0.12-1.65-0.2-2.8-0.58-4.32c-0.14-0.58-0.36-1.2-0.81-2.45c-0.44-1.25-0.64-1.66-1.06-2.03
		c-0.17-0.14-0.85-0.74-1.61-0.58c-0.24,0.05-0.59,0.2-1.16,1c-0.58,0.82-0.9,1.61-1.35,3.06c-0.25,0.8-0.45,1.44-0.71,2.45
		c-0.44,1.74-0.66,3.07-0.71,3.35c-0.29,1.76-0.48,2.9-0.45,4.45c0.03,1.77,0.33,3.56-0.26,4.81c-0.06,0.14-0.19,0.37-0.29,0.74
		c-0.22,0.79-0.05,1.17-0.19,1.94c-0.08,0.41-0.15,0.42-0.39,1.1c-0.36,1.03-0.26,1.2-0.61,2.55c-0.4,1.5-0.72,2.01-0.84,2.19
		c-0.28,0.43-0.41,0.47-0.71,0.87c-0.68,0.9-0.84,1.73-1.06,2.45c-0.53,1.73-1.01,1.51-1.9,3.61c-0.64,1.51-0.85,2.72-1.03,3.71
		c-0.38,2.12-0.33,3.77-0.03,3.84c0.12,0.03,0.2-0.21,0.58-0.29c0.28-0.06,0.52,0.01,0.61,0.03c0.07,0.02,0.26,0.07,0.42,0.19
		c0.38,0.29,0.55,0.89,0.42,1.35c-0.1,0.35-0.29,0.34-0.39,0.74c-0.08,0.31,0.02,0.37,0,0.77c-0.02,0.37-0.14,0.67-0.39,1.26
		c-0.22,0.52-0.32,0.63-0.45,0.68c-0.18,0.07-0.27-0.04-0.45,0.03c-0.3,0.11-0.25,0.46-0.52,0.68c-0.39,0.31-1.09,0.04-1.29-0.03
		c-0.42-0.16-0.66-0.4-1.03-0.77c-0.11-0.11-0.53-0.54-0.94-1.23c-0.33-0.55-0.49-1.02-0.55-1.19c-0.21-0.62-0.27-1.13-0.29-1.39
		c-0.05-0.58,0-1.04,0.06-1.52c0.16-1.12,0.34-2.41,1-4.1c0.37-0.94,0.72-1.59,0.87-1.87c0.71-1.33,1.68-3.51,2.77-7.13
		c1.54-2.95,1.47-3.42,1.39-3.52c-0.01-0.01-0.12-0.13-0.26-0.29c-0.24-0.26-0.24-0.25-0.29-0.32c-0.06-0.08-0.22-0.28-0.35-0.58
		c-0.05-0.11-0.12-0.27-0.16-0.48c-0.07-0.33-0.03-0.59,0-0.77c0.06-0.41,0.1-0.68,0.32-0.94c0.21-0.24,0.63-0.51,0.94-0.39
		c0.43,0.17,0.38,1,0.55,1c0.17,0,0.32-0.86,0.42-1.39c0.35-1.84,0.6-1.85,0.84-3.23c0.12-0.69,0.14-1.43,0.16-2.9
		c0.04-2.29,0.07-3.72-0.13-5.61c-0.06-0.61-0.21-1.85-0.35-3c-0.11-0.87-0.18-1.39-0.23-2.16c-0.05-0.88-0.03-1.61,0-2.1v-2.97
		v-2.32c0.27-0.41,0.63-1.04,0.97-1.84c0.47-1.13,0.7-2.16,0.81-2.97"/>
	<path class="st1" d="M106.11,156.2"/>
	<path class="st1" d="M106.45,153.49"/>
	<line class="st1" x1="106.06" y1="156.52" x2="106.63" y2="152.69"/>
	<line class="st1" x1="130.99" y1="152.86" x2="132.16" y2="155.65"/>
	<path class="st1" d="M124.35,161.52c0.11,0.55,0.06,0.96,0,1.23c-0.12,0.52-0.35,0.76-0.45,1.42c-0.03,0.23-0.03,0.37-0.03,0.68
		c0,1.31,0,2.05-0.1,2.74c-0.09,0.67-0.25,1.12-0.32,1.39c-0.55,1.85-0.23,4.51,0,6.45c0.55,4.64,1.81,7.61,2.19,8
		c0.02,0.02,0.21,0.21,0.16,0.29c-0.05,0.09-0.31-0.07-0.55,0c-0.31,0.09-0.43,0.51-0.55,0.94c-0.17,0.61-0.35,1.24-0.06,1.94
		c0.12,0.29,0.26,0.63,0.58,0.77c0.3,0.14,0.61,0.05,0.74,0.26c0.08,0.12,0.05,0.28,0.03,0.35c-0.13,0.65-0.27,1.79-0.23,2.48
		c0.03,0.41,0.07,0.97,0.48,1.35c0.06,0.05,0.49,0.44,0.9,0.32c0.42-0.12,0.58-0.69,0.81-1.48c0.05-0.18,0.12-0.46,0.32-1.77
		c0.08-0.52,0.12-0.77,0.16-1.1c0.19-1.4,0.28-2.11,0.26-2.71c-0.01-0.38-0.06-0.46-1.1-3.16c-0.76-1.97-0.9-2.36-0.9-3.03
		c-0.01-0.6,0.1-0.73,0.13-1.81c0.03-0.91-0.03-1.5-0.06-2.06c-0.07-1.19-0.01-1.65,0.03-3.55c0.05-2.53-0.04-2.69,0-4.58
		c0.03-1.46,0.11-2.63,0.16-3.35"/>
	<path class="st1" d="M126.96,163.57c-0.04-0.36-0.08-0.73-0.12-1.09"/>
	<path class="st1" d="M115.9,169.82c-0.21,0.88-0.82,0.95-1.03,1.89c-0.15,0.66,0.13,0.78,0.16,1.9c0.02,0.66,0.05,1.49-0.32,2.32
		c-0.47,1.06-1.11,1.03-1.55,2.13c-0.08,0.2-0.14,0.68-0.26,1.65c-0.27,2.21-0.21,2.93-0.16,3.32c0.05,0.39,0.09,0.68,0.19,1.06
		c0.2,0.72,0.39,0.87,0.42,1.39c0.01,0.25,0.04,0.7-0.26,1.1c-0.07,0.09-0.39,0.5-0.9,0.52c-0.41,0.02-0.71-0.22-0.81-0.29
		c-0.19-0.14-0.2-0.23-0.48-0.52c-0.24-0.24-0.4-0.35-0.48-0.42c-0.72-0.63-0.14-2.83,0.1-3.74c0.16-0.62,0.2-0.62,0.32-1.16
		c0.22-0.98,0.19-1.41,0.29-2.16c0.13-0.97,0.27-0.99,0.94-3.42c0.26-0.96,0.39-1.44,0.45-1.74c0.32-1.62,0.21-3.02,0-5.81
		c-0.04-0.55-0.02-1.1-0.1-1.65c-0.1-0.74-0.21-1.03-0.03-1.24c0.27-0.33,1.02-0.27,1.56,0c0.82,0.41,1.1,1.3,1.6,2.89
		C115.86,168.83,116.02,169.34,115.9,169.82z"/>
	<path class="st0" d="M115.34,60.85c-3.05,8.84-13.81,12.35-15.97,20.32l0,0c-2.02,5.84,2.42,12.87,9.87,11.18"/>
	<path class="st0" d="M121.82,59.05c2.23,7.89,12.76,7.26,15.44,14.85c1.23,5.9-3.74,11.52-7.74,13.69"/>
	<path class="st0" d="M132.44,116.89c0.76-1.45,2.39-1.01,2.64-2.47c0.26-0.29,0.54-0.12,0.82-0.39c0.35-0.33,0.1-0.76,0.39-1.02
		c0.33-0.3,0.81,0.15,1.6,0.1c1.02-0.07,1.08-0.9,2.08-1.02c3.51,1.22,5.57-3.27,9.63-0.05c2.62-0.12,4.41-1.3,6,0.87
		c1.37-0.2,1.25,0.72,2.03,1.35c0.67,0.28,1.29-0.57,1.74-0.29c0.52,0.33-0.06,1.65,0.58,2.08c0.56,0.17,1.02,0.24,1.31,0.92
		c0.9,0.64,1.01,1.64,1.84,2.32c0.39,0.69-0.15,0.95,0.24,1.89c0.22,0.53,0.5,0.71,0.48,1.21c-0.15,1.4,1.65,0.04-0.15,2.27
		c-0.41,2.84-2.06,1.21-3.24-0.29c-0.81,0.05-1.08,1.13-1.16-0.34c-1.16-1.72-2.31-0.62-3.87-0.97c-1.49-0.66-3.92-1.38-6.29-1.02
		l-0.06-10.24l0.2,20.06c1.07,1.04,1.1,0.24,1.94-0.39c0.43-0.23,0.62,0.01,1.16-0.1c1.06-0.21,1.07-1.25,2.08-1.45
		c1.65,0.21,1.53,0.15,2.47-1.31c1.21-0.59,3.08-2.1,3.48-3.63"/>
	<path class="st0" d="M142.24,112.48c0.08,0.12,0.21,0.3,0.34,0.53c1.08,1.86,1.11,3.71,1.16,4.69c0.35,6.82,0.5,12.85,0,14.42"/>
	<path class="st0" d="M149.26,131.89c-0.25,0.61-0.59,0.91-0.82,1.06c-1.13,0.75-3.08,0.29-4.74-1.26"/>
	<path class="st0" d="M143.69,131.69c-0.22-0.05-1.1,0.3-1.5,0.15c-0.46-0.18-0.76-0.37-0.87-0.44c-1.36-0.78-3.71,0.71-4.55-0.19
		c-0.21-0.22-0.25-0.52-0.58-0.63c-0.4-0.14-0.71,0.18-0.97,0c-0.25-0.17-0.04-0.52-0.29-0.82c-0.23-0.28-0.57-0.18-1.21-0.34
		c-0.27-0.07-1.23-0.2-1.68-0.48"/>
	<path class="st0" d="M143.95,122.31c-3.69-2.14-3.95,0.82-6.5,0.43c-1.02,0.83-0.78-0.23-1.55-0.77c-0.47-0.13-2.36,1.08-3.19,0.68
		"/>
	<path class="st0" d="M131.68,151.96c0.28-1.16,1.15-1.51,1.56-1.88c1.1-1.01,2.36-0.84,2.85-1.94c0.25-0.55,0.22-1.22,0.48-1.26
		c0.24-0.03,0.43,0.49,0.68,0.44c0.24-0.05,0.2-0.6,0.48-0.68c0.18-0.05,0.42,0.11,0.53,0.29c0.24,0.38-0.08,0.78,0.1,0.97
		c0.2,0.22,0.73-0.19,1.45-0.29c0.99-0.14,1.83,0.36,2.52,0.77c0.39,0.23,1.08,0.65,1.65,1.45c0.84,1.18,0.75,2.26,1.6,2.56
		c0.28,0.1,0.58,0.09,0.73,0.34c0.15,0.24,0.09,0.64-0.05,0.92c-0.1,0.2-0.2,0.24-0.24,0.44c-0.05,0.26,0.07,0.48,0.1,0.53
		c0.24,0.49,0.76,3.84,0.05,6.82c-0.35,1.49-0.86,3.63-2.76,5.03c-1.45,1.07-3.05,1.23-4.31,1.35c-1.07,0.11-2.28,0.23-3.68-0.34
		c-1.41-0.57-2.26-1.55-2.66-2.08"/>
	<path class="st0" d="M146.16,161.45c0.44-0.82,1.28-2.15,1.65-3.58c0.49-1.9,0.49-3.41,0.48-3.87c-0.02-1.41-0.05-3.11-1.02-4.94
		c-1.18-2.22-3.03-3.29-3.58-3.58c-2.68-1.43-5.7-1.21-7.84-0.24c-0.7,0.32-1.9,0.86-2.71,2.13c-0.58,0.92-0.77,1.91-0.92,2.71
		c-0.17,0.89-0.55,1.54-0.54,2.08"/>
	<path class="st0" d="M135.18,156.52c0.43-0.97,1.18-1.52,1.55-1.74c0.21-0.13,1.13-0.67,2.42-0.58c0.44,0.03,1.27,0.16,2.08,0.73
		c1.29,0.9,1.62,2.27,1.69,2.61c0.29,1.37-0.06,3.15-1.4,4.21c-1.1,0.87-2.33,0.83-2.56,0.82c-1.83-0.08-2.89-1.47-3.1-1.74
		C135.04,159.75,134.5,158.05,135.18,156.52z"/>
	<path class="st0" d="M135.85,160.82c0.06-0.35,0.53-1.27,0.92-1.74c0.43-0.52,0.75-0.47,1.16-0.97c0.5-0.61,0.26-0.95,0.73-1.79
		c0.35-0.63,1.05-1.44,1.45-1.31c0.39,0.13,0.39,1.09,0.39,2.32c0,1.17,0,1.76-0.29,2.18c-0.56,0.81-1.48,0.68-1.79,1.45
		c-0.17,0.42,0.13,1.21,0.24,1.51"/>
	<line class="st0" x1="137.84" y1="158.57" x2="138.42" y2="160.97"/>
	<line class="st0" x1="138.35" y1="157.97" x2="139.99" y2="159.13"/>
	<line class="st0" x1="139.63" y1="155.65" x2="140.5" y2="156.2"/>
	<path class="st0" d="M108.23,111.32c-12.58-0.49-21.41,12.43-21.58,25.02c0.02,0.65,0.06,1.55,0.15,2.61
		c0.09,1.11,0.17,2.06,0.39,3.29c0.16,0.92,0.35,1.92,0.77,3.15c0,0,0.48,1.37,1.26,2.76c3.5,6.24,8.39,8.53,8.39,8.53
		c2.9,1.36,5.72,1.59,7.82,1.49"/>
	<path class="st0" d="M108.71,107.65c-0.49,0.29-0.9,0.37-1.16,0.39c-0.45,0.03-0.56-0.09-1.55-0.24c-0.84-0.13-0.89-0.06-1.16-0.19
		c-0.58-0.29-0.72-0.78-0.97-0.73c-0.29,0.07-0.13,0.73-0.53,0.97c-0.42,0.25-0.88-0.31-1.45-0.05c-0.36,0.16-0.36,0.47-0.63,0.48
		c-0.38,0.02-0.5-0.59-0.92-0.73c-0.78-0.25-1.95,1.38-2.03,1.5c-1.23,1.74-0.9,3.07-1.94,3.53c-0.49,0.22-0.53-0.1-1.35,0.1
		c-1.27,0.3-1.42,1.11-2.66,1.35c-0.74,0.15-0.86-0.1-1.31,0.15c-0.74,0.41-0.5,1.16-1.26,1.65c-0.63,0.41-1.23,0.16-1.5,0.63
		c-0.07,0.13-0.07,0.23-0.05,0.73c0.08,1.47,0.15,1.69,0.05,2.08c-0.13,0.52-0.31,0.42-0.58,1.06c-0.35,0.85-0.16,1.32-0.29,2.13
		c-0.15,0.89-0.57,1.49-1.06,2.18c-1.1,1.54-2.17,1.76-2.18,2.71c0,0.22,0.05,0.77,0.15,1.31c0.06,0.36,0.13,0.61,0.15,0.68
		c0.23,0.97,0.02,3.47-1.16,5.85c-0.19,0.38-0.45,0.86-0.48,1.55c-0.02,0.41-0.05,1.05,0.34,1.6c0.22,0.31,0.46,0.42,0.53,0.77
		c0.07,0.32-0.05,0.6-0.1,0.73c-0.35,0.9-0.56,2.71,0.15,3.68c0.29,0.39,0.51,0.35,0.63,0.73c0.18,0.58-0.28,0.92-0.1,1.55
		c0.12,0.4,0.32,0.32,0.53,0.82c0.29,0.68,0.01,1.04,0.29,1.31c0.34,0.32,0.89-0.1,1.21,0.19c0.31,0.28-0.04,0.78,0,1.79
		c0.04,1.04,0.44,1.05,0.44,1.98c0,1.02-0.47,1.39-0.19,1.84c0.29,0.46,0.88,0.2,1.31,0.58c0.27,0.24,0.57,0.81-0.39,4.55
		c-0.49,1.92-0.92,3.15-0.34,4.16c0.1,0.17,0.22,0.32,0.34,0.63c0.3,0.77,0.14,1.38,0,2.37c-0.26,1.82,0.02,1.52-0.24,3.24
		c-0.07,0.44-0.15,0.93,0,1.55c0.14,0.58,0.35,0.65,0.48,1.11c0.25,0.84-0.26,1.14-0.39,2.47c-0.06,0.58-0.17,1.77,0.53,2.42
		c0.05,0.04,0.54,0.49,0.97,0.34c0.12-0.04,0.53-0.23,0.68-1.84c0.09-0.99,0.02-1.74-0.29-3.87c-0.25-1.75-0.38-2.63-0.39-2.66
		c-0.24-0.73-0.59-1.43-0.29-2.13c0.13-0.3,0.32-0.46,0.44-0.58c0.36-0.36,0.92-1.22,0.82-5.81c-0.03-1.38-0.1-2.28,0.44-2.61
		c0.22-0.14,0.55-0.19,0.73-0.05c0.2,0.17,0.14,0.6,0,1.45c-0.1,0.63-0.18,0.81-0.05,1.02c0.16,0.25,0.38,0.15,0.73,0.44
		c0.12,0.1,0.24,0.24,0.58,0.97c0.23,0.5,0.36,0.77,0.44,1.02c0.34,1.06-0.21,1.47-0.15,2.9c0.05,1.12,0.39,1.16,0.29,2.03
		c-0.1,0.87-0.47,1.05-0.73,1.89c-0.34,1.11-0.08,2.1,0.19,3.15c0.47,1.8,1.12,2.06,1.06,3.34c-0.03,0.72-0.23,0.54-0.44,1.84
		c-0.2,1.3-0.04,1.74-0.39,2.71c-0.25,0.7-0.4,0.62-0.58,1.21c-0.33,1.05-0.27,2.54,0.39,2.81c0.51,0.21,1.36-0.33,1.69-1.02
		c0.31-0.64-0.06-0.95,0.1-1.89c0.16-0.94,0.74-1.87,1.5-2.37c0.94-0.62,1.45-0.13,2.08-0.63c1.38-1.09,1-5-0.73-6
		c-0.46-0.27-0.95-0.29-1.31-0.82c-0.42-0.63-0.27-1.43-0.19-1.84c0.17-0.89,0.64-1.48,0.97-1.89c0.3-0.37,0.65-0.81,1.26-1.11
		c0.76-0.38,0.99-0.08,1.35-0.39c0.52-0.44,0.49-1.47,0.39-3.53c-0.03-0.62-0.07-1.05,0.15-1.16c0.25-0.12,0.53,0.32,1.45,0.77
		c0.79,0.39,0.93,0.25,1.31,0.58c0.54,0.48,0.48,1,0.87,1.11c0.18,0.05,0.5,0.02,1.02-0.48"/>
	<path class="st0" d="M96.23,180.76c0.2-0.22,0.58-0.37,0.82-0.24c0.44,0.23,0.25,1.27,0.19,1.55c-0.11,0.57-0.41,1.38-0.68,1.35
		c-0.23-0.02-0.35-0.64-0.44-1.11C96,181.62,95.91,181.1,96.23,180.76z"/>
	<path class="st0" d="M92.16,186.26c0.44-0.11,0.8,0.14,0.87,0.19c0.42,0.31,0.72,1.04,0.34,1.55c-0.32,0.42-0.96,0.5-1.4,0.24
		c-0.54-0.31-0.69-1.03-0.44-1.5C91.73,186.37,92.13,186.26,92.16,186.26z"/>
	<path class="st0" d="M89.4,181.58c0.37-0.4,0.06-1.25-0.39-1.69c-0.35-0.36-1.01-0.69-1.4-0.44c-0.46,0.3-0.44,1.33,0.1,1.89
		C88.17,181.81,89.05,181.97,89.4,181.58z"/>
	<polyline class="st0" points="97.19,115.06 107.1,135.08 86.97,135.36 	"/>
	<line class="st0" x1="93.47" y1="153.49" x2="107.1" y2="135.35"/>
	<ellipse transform="matrix(0.442 -0.897 0.897 0.442 -62.7637 156.9774)" class="st0" cx="94.79" cy="128.94" rx="3.45" ry="1.9"/>
	<ellipse class="st0" cx="105.03" cy="120.78" rx="1.42" ry="2.27"/>
	<path class="st0" d="M103.58,152.83c-0.19,0.96-1.12,1.58-2.08,1.39s-1.58-1.12-1.39-2.08c0.19-0.96,1.12-1.58,2.08-1.39
		C103.14,150.94,103.76,151.87,103.58,152.83z"/>
	<path class="st0" d="M92.58,144.71c-0.26,0.01-0.84-1.11-0.45-2c0.42-0.97,1.75-1.11,2.19-1.16c0.5-0.05,1.53-0.16,1.94,0.45
		c0.51,0.76-0.39,1.98-0.45,2.06c-0.7,0.93-1.86,1.21-1.94,1.1c-0.05-0.08,0.42-0.3,0.65-0.9c0.11-0.3,0.24-0.92-0.06-1.16
		c-0.26-0.21-0.74-0.07-1.03,0.13C92.71,143.71,92.82,144.7,92.58,144.71z"/>
	<path class="st0" d="M93.47,123.68c0.38-0.01,0.78-0.49,0.73-0.84c-0.05-0.31-0.47-0.39-0.45-0.65c0.02-0.24,0.38-0.26,0.45-0.52
		c0.1-0.36-0.39-1.01-0.97-1.03c-0.62-0.02-1.09,0.7-1.1,1.23c-0.01,0.49,0.39,1.1,0.39,1.1l0,0
		C92.52,122.97,93,123.69,93.47,123.68z"/>
	<path class="st0" d="M102.13,117.16c0.27-0.11-0.05-0.87,0.39-1.35c0.3-0.33,0.87-0.46,1.23-0.26c0.59,0.33,0.43,1.48,0.58,1.48
		c0.13,0,0.42-0.87,0.19-1.81c-0.09-0.36-0.31-1.27-1.1-1.55c-0.76-0.27-1.64,0.18-2.06,0.84c-0.4,0.63-0.35,1.4-0.06,1.94
		C101.5,116.84,101.91,117.25,102.13,117.16z"/>
	<path class="st0" d="M105.31,128.45c-0.62-0.31-0.7-1.09-0.73-1.29c-0.04-0.38-0.02-1.21,0.39-1.35c0.39-0.14,0.92,0.4,1.16,0.84
		c0.35,0.64,0.39,1.61-0.06,1.87C105.77,128.68,105.39,128.49,105.31,128.45z"/>
	<path class="st0" d="M101.48,133.55c0.17,0.14,0.79-0.16,1.16-0.65c0.66-0.87,0.3-2.04,0.19-2.39c-0.12-0.4-0.22-0.7-0.45-0.77
		c-0.54-0.17-1.6,0.94-1.42,1.68c0.09,0.37,0.43,0.37,0.58,0.84C101.76,132.89,101.3,133.4,101.48,133.55z"/>
	<path class="st0" d="M100.07,148.9L100.07,148.9c0.41,0.19,0.61,0.13,0.7,0.06c0,0,0.14-0.09,0.32-0.9l0,0
		c0.32-0.42,0.4-0.93,0.19-1.23c-0.31-0.44-1.19-0.31-1.61,0.13c-0.39,0.41-0.44,1.14-0.19,1.29c0.06,0.04,0.23,0.1,0.65-0.19"/>
	<path class="st0" d="M92.39,136.97c0.61-0.14,1.16,0.25,1.23,0.71c0.05,0.34-0.16,0.7-0.52,0.9"/>
	<line class="st0" x1="103.61" y1="144.46" x2="104.57" y2="142.97"/>
	<path class="st0" d="M93,149.87c-0.15-0.11,0.06-0.8,0.48-1.29c0.92-1.06,2.72-0.98,2.77-0.77c0.04,0.14-0.67,0.26-1.87,1.1
		C93.52,149.51,93.14,149.97,93,149.87z"/>
	<path class="st0" d="M103.55,156.97c-0.12-0.13,0.47-0.51,0.65-1.42c0.13-0.7-0.09-1.12,0.19-1.35c0.21-0.17,0.56-0.15,0.77,0
		c0.42,0.3,0.29,1.12,0.06,1.61C104.8,156.72,103.7,157.13,103.55,156.97z"/>
	<path class="st0" d="M96.52,121.23c-0.22-0.32-0.43-0.65-0.65-0.97"/>
	<line class="st0" x1="91.68" y1="126.19" x2="90.71" y2="125.78"/>
	<line class="st0" x1="100.37" y1="129.72" x2="100.28" y2="127.94"/>
	<path class="st0" d="M100.95,139.97c-0.27-0.13-0.71,0.31-0.75,0.35c-0.07,0.07-0.63,0.65-0.39,1.1c0.12,0.23,0.44,0.39,0.71,0.32
		c0.28-0.07,0.39-0.35,0.48-0.55C101.17,140.76,101.22,140.1,100.95,139.97z"/>
	<path class="st0" d="M100.5,140.84c-0.06,0.06-0.11,0.11-0.1,0.17c0.02,0.07,0.14,0.13,0.22,0.1c0.14-0.05,0.16-0.35,0.08-0.39
		C100.65,140.69,100.52,140.81,100.5,140.84z"/>
	<path class="st0" d="M125,71.06c0.14-0.3,0.53-1.02,1.37-1.55c0.86-0.55,1.7-0.58,2.03-0.58"/>
	<path class="st0" d="M125.63,76.24c0.33-0.28,0.82-0.63,1.47-0.92c0.49-0.21,0.95-0.33,1.31-0.39"/>
	<path class="st0" d="M127.86,81.48c0.46-0.3,1.18-0.69,2.14-0.94c1.01-0.26,1.88-0.25,2.44-0.19"/>
	<path class="st0" d="M110.79,83.56c-0.6-0.05-1.56-0.04-2.66,0.28c-1.15,0.34-1.98,0.88-2.47,1.26"/>
	<path class="st0" d="M112.02,78.37c-0.88-0.1-1.97-0.14-3.22,0c-1.67,0.18-3.03,0.62-4.02,1.02"/>
	<path class="st0" d="M113.39,73.98c-0.94-0.14-2.02-0.24-3.22-0.25c-1.35-0.01-2.56,0.1-3.58,0.25"/>
	<polyline class="st0" points="118.72,54.19 118.97,58.77 119.55,63.13 120.32,74.94 121.39,83.06 121.39,93.18 120.9,98.84 
		120.05,115.39 118.72,137.41 118.72,139.39 	"/>
	<path class="st0" d="M107.84,141.35c-0.22,0.51,0.23,0.89,0.48,1.79c0.35,1.23,0.01,2.29-0.48,3.82c-0.7,2.18-1.56,2.86-1.26,4.21
		c0.04,0.19,0.21,0.91,0.63,1.02c0.62,0.15,1.63-0.8,1.79-1.84c0.07-0.43-0.03-0.75-0.1-1.02c-0.4-1.59-0.11-3.85,0.97-5.32
		c0.29-0.4,0.42-0.42,0.55-0.76c0.46-1.17-0.24-2.95-1.23-3.12c-0.5-0.08-1.02,0.27-1.29,0.45c-0.33,0.22-0.52,0.45-0.79,0.78
		c-0.44,0.54-0.7,1.03-0.83,1.28c-0.02,0.05-0.13,0.27-0.26,0.59c-0.05,0.14-0.29,0.75-0.46,1.59c-0.41,1.99-0.18,4.09-0.08,5.01
		c0.02,0.16,0.06,0.59,0.24,1.13c0.22,0.66,0.44,1.32,0.9,1.51c0.75,0.3,1.82-0.82,2.34-1.37c0.97-1.02,1.38-2.08,1.58-2.6
		c0.06-0.16,0.35-0.93,0.5-1.99c0.11-0.78,0.1-1.35,0.08-2.37c-0.02-0.78-0.03-1.18-0.14-1.7c-0.18-0.86-0.29-1.39-0.73-1.69
		C109.51,140.27,108.15,140.64,107.84,141.35z"/>
	<path class="st0" d="M106.58,145.39c-0.16-0.47-0.56-1.21-0.72-1.67"/>
	<path class="st0" d="M106.58,145.39c0.17,0.51,0.95,1.09,1.26,1.58"/>
	<path class="st0" d="M128.51,140.76c0.11,1.86,0.52,3.28,0.87,4.24c0.68,1.83,1.41,2.62,1.6,4.4c0.17,1.58-0.2,2.95-0.44,2.95
		c-0.49,0.01-0.37-5.65-2.32-6.15c-0.23-0.06-0.44-0.03-0.58,0"/>
	<path class="st0" d="M129.75,145.73c0-0.47-0.04-1.4,0.44-1.9c0.33-0.35,1.15-0.49,1.31-0.52"/>
	<path class="st0" d="M108.03,147.97c-0.14,0.62-0.33,1.08-0.48,1.39c-0.05,0.1-0.24,0.48-0.35,1c-0.03,0.14-0.07,0.36,0,0.61
		c0.03,0.12,0.1,0.36,0.29,0.42c0.16,0.05,0.32-0.05,0.39-0.1c0.32-0.21,0.37-0.61,0.39-0.74c0.03-0.26,0-0.6-0.1-0.61
		c-0.1-0.02-0.25,0.34-0.35,0.58c-0.04,0.1-0.14,0.35-0.13,0.35c0.03,0.01,0.66-0.88,0.74-1.94c0.06-0.76-0.23-0.8-0.26-1.55
		c-0.05-1.12,0.57-1.57,1.16-3.77c0.04-0.15,0.22-0.84,0-0.97c-0.18-0.1-0.46,0.25-0.68,0.13c-0.13-0.07-0.14-0.32-0.16-0.81
		c-0.03-0.68,0.06-0.75,0.1-0.77c0.08-0.05,0.24,0,0.55,0.1c0.21,0.07,0.32,0.1,0.42,0.16c0.05,0.03,0.35,0.22,0.48,0.58
		c0,0,0.07,0.18,0,1v0c0,0-0.12,0.08-0.16,0.1c-0.23,0.07-0.94-1.36-0.84-1.42c0.02-0.01,0.07,0.03,0.23,0.23"/>
	<path class="st0" d="M130.63,149.71l-0.56-2.03l-0.74-1.5l-0.62-1.75l-0.45-1.46v-0.68c-0.05-0.45-0.12-0.53-0.16-0.53
		c-0.21-0.02-0.77,1.69-0.26,2.44c0.09,0.12,0.26,0.3,0.32,0.61c0.04,0.21,0.01,0.35,0.1,0.58c0.06,0.18,0.16,0.31,0.23,0.39
		l0.31,0.1"/>
	<line class="st0" x1="130.45" y1="149.88" x2="130.45" y2="149.39"/>
	<ellipse class="st0" cx="118.72" cy="138.42" rx="69.81" ry="99.87"/>
	<path class="st0" d="M114.22,155.73c0.37,0.39,1.2,1.16,2.49,1.48c1.58,0.39,2.86-0.13,3.6-0.43c1.48-0.6,2.42-1.57,2.91-2.17"/>
</g>
<g id="Слой_2">
</g>
</svg>
