<?xml version="1.0" encoding="utf-8"?>
<!-- Generator: Adobe Illustrator 26.0.3, SVG Export Plug-In . SVG Version: 6.00 Build 0)  -->
<svg version="1.1" id="Слой_1" xmlns="http://www.w3.org/2000/svg" xmlns:xlink="http://www.w3.org/1999/xlink" x="0px" y="0px"
	 viewBox="0 0 250 250" style="enable-background:new 0 0 250 250;" xml:space="preserve">
<style type="text/css">
	.st0{fill:none;stroke:#000000;stroke-miterlimit:10;}
</style>
<g id="XMLID_00000070804547179135662890000009857725586186361484_">
	<g>
	</g>
	<g>
		<path class="st0" d="M118.72,54.19c-2.52,1.13-3.26,3.85-3.52,7.01c-0.35,4.33,0.19,9.49-1.71,12.48c-0.04,0.1-0.07,0.2-0.1,0.3
			c-0.51,1.43-0.96,2.9-1.37,4.39c-1.24,4.51-2.07,9.23-2.55,14c-0.52,5-0.65,10.05-0.49,14.98c-0.01,0.11-0.03,0.22-0.04,0.33
			c-0.16,1.2-0.3,2.42-0.41,3.67c-0.76,7.8-0.83,16.35-1.04,24.01c-0.02,0.76-0.04,1.51-0.06,2.25c0.44-0.15,1.05-0.4,1.71-0.83
			c0.15-0.09,0.29-0.19,0.44-0.3c0.69-0.51,0.7-0.7,1.23-1c1.38-0.78,2.91-0.35,3.03-0.32c1.21,0.35,1.88,1.17,2.1,1.47
			c0.49,0.59,1.01,1.2,1.56,1.81c0.35,0.39,0.7,0.77,1.05,1.12c0.06,0.06,0.11,0.12,0.17,0.18c0.18-0.06,0.44-0.18,0.69-0.38
			c0.48-0.39,0.67-0.88,0.74-1.1c0.28-0.51,0.7-1.21,1.33-1.94c0.29-0.32,1.13-1.31,2.14-1.87c2.11-1.16,4.52-0.44,5.29-0.17
			c0.01,0,0.02,0.01,0.03,0.01c4.73,8.23,2.84,0.07,3.07-3.97c0-0.45,0.01-0.91,0.02-1.38c0.04-2.02,0.15-4.16,0.24-6.31
			c0.1-1.94,0.17-3.88,0.18-5.75c0-0.87-0.02-1.73-0.05-2.56c0-1.42,0-2.84,0-4.26c-0.1-1.28-0.26-3.21-0.51-5.56
			c-0.52-4.87-1.07-9.93-2.46-15.98c-0.06-0.28-0.13-0.56-0.2-0.87c-0.51-2.12-1.25-4.89-2.32-8.1l-0.62-1.28
			c-0.29-0.6-0.42-0.76-0.54-1.11c-0.18-0.55-0.17-0.97-0.19-1.37c-0.01-0.57-0.08-1.39-0.33-2.44c-0.99-4.04-1.47-7.21-2.12-9.29
			c-0.65-2.05-1.05-3.76-1.29-5.01c-0.44-2.2-0.58-3.79-1.79-4.51C119.56,54.26,119.07,54.2,118.72,54.19z"/>
		<polyline class="st0" points="129.03,135.08 128.81,139.39 128.79,139.74 		"/>
		<path class="st0" d="M131.81,151.5c0.26-1.22,0.24-3.02,0.22-4.32c0,0-0.02-1.77-0.53-3.87c-0.03-0.14-0.1-0.42-0.24-0.78
			c-0.2-0.51-0.44-1.12-0.99-1.62c-0.28-0.24-0.73-0.65-1.29-0.59c-0.06,0.01-0.12,0.02-0.18,0.04c-0.35,0.08-0.59,0.33-0.69,0.43
			c-0.81,0.84-0.71,2.3-0.49,5.18c0.01,0.12,0.01,0.2,0.02,0.24c0.16,1.91,0.28,3.2,0.86,4.5c0.25,0.55,0.49,1.09,1.07,1.55
			c0.32,0.26,0.93,0.74,1.42,0.6c0.32-0.09,0.54-0.42,0.69-0.9c0.02-0.02,0.02-0.05,0.03-0.08c0.02-0.04,0.03-0.09,0.04-0.14
			c0.02-0.06,0.03-0.12,0.04-0.18c0.01-0.01,0.01-0.01,0.01-0.02"/>
		<polyline class="st0" points="128.79,140.32 128.81,139.39 128.91,134.28 128.91,134.13 		"/>
		<line class="st0" x1="109.19" y1="139.97" x2="109.19" y2="136.87"/>
		<path class="st0" d="M113.93,164.95c-0.31-0.19-0.74-0.37-1.19-0.27c-0.24,0.05-0.59,0.2-1.16,1c-0.58,0.82-0.9,1.61-1.35,3.06
			c-0.26,0.8-0.46,1.45-0.71,2.45c-0.44,1.74-0.67,3.08-0.71,3.36c-0.29,1.76-0.48,2.9-0.46,4.45c0.03,1.77,0.33,3.56-0.25,4.81
			c-0.07,0.13-0.19,0.37-0.29,0.74c-0.22,0.78-0.05,1.17-0.2,1.93c-0.08,0.42-0.15,0.43-0.38,1.1c-0.36,1.03-0.26,1.2-0.62,2.55
			c-0.39,1.5-0.71,2.01-0.84,2.19c-0.28,0.43-0.4,0.47-0.71,0.87c-0.68,0.91-0.84,1.74-1.06,2.46c-0.46,1.51-0.89,1.53-1.59,2.92
			c-0.1,0.2-0.2,0.43-0.31,0.69c-0.64,1.51-0.86,2.72-1.04,3.71c-0.38,2.12-0.33,3.77-0.03,3.84c0.12,0.02,0.21-0.21,0.58-0.29
			c0.28-0.06,0.53,0,0.62,0.03c0.07,0.02,0.25,0.07,0.42,0.19c0.38,0.29,0.55,0.89,0.41,1.36c-0.09,0.34-0.28,0.34-0.38,0.74
			c-0.08,0.31,0.02,0.36,0,0.77c-0.02,0.38-0.15,0.67-0.39,1.26c-0.21,0.52-0.32,0.63-0.45,0.68c-0.18,0.07-0.27-0.04-0.45,0.03
			c-0.31,0.11-0.25,0.46-0.52,0.68c-0.39,0.31-1.09,0.04-1.29-0.03c-0.42-0.16-0.66-0.41-1.03-0.78c-0.11-0.11-0.53-0.54-0.94-1.22
			c-0.32-0.56-0.49-1.02-0.55-1.2c-0.2-0.61-0.26-1.13-0.29-1.38c-0.05-0.59,0-1.05,0.07-1.52c0.16-1.12,0.34-2.41,1-4.1
			c0.37-0.94,0.72-1.59,0.87-1.87c0.27-0.5,0.57-1.12,0.9-1.89c0.55-1.28,1.19-2.98,1.87-5.24c1.54-2.95,1.48-3.41,1.39-3.51
			c-0.01-0.01-0.12-0.14-0.26-0.29c-0.23-0.27-0.23-0.26-0.29-0.33c-0.06-0.07-0.22-0.28-0.35-0.58c-0.05-0.1-0.12-0.26-0.16-0.48
			c-0.07-0.33-0.03-0.59,0-0.78c0.06-0.4,0.1-0.68,0.32-0.93c0.21-0.24,0.63-0.51,0.93-0.39c0.43,0.17,0.39,1,0.55,1
			c0.17,0.01,0.32-0.86,0.42-1.39c0.36-1.83,0.6-1.85,0.84-3.22c0.12-0.69,0.14-1.44,0.16-2.9c0.04-2.3,0.07-3.72-0.13-5.62
			c-0.06-0.61-0.21-1.85-0.35-3c-0.11-0.86-0.19-1.39-0.23-2.16c-0.05-0.88-0.02-1.61,0-2.1v-2.67v-0.29v-2.33
			c0.27-0.41,0.64-1.03,0.97-1.83c0.14-0.34,0.26-0.68,0.36-1c0.2-0.63,0.33-1.2,0.41-1.71"/>
		<path class="st0" d="M114.5,165.4c-0.05-0.05-0.1-0.09-0.15-0.14c-0.05-0.05-0.15-0.13-0.28-0.22"/>
		<path class="st0" d="M132.16,155.65c0.1,0.32,0.36,1.24,0.45,1.9c0.03,0.22,0.05,0.43,0.05,0.43c0.02,0.35,0.02,0.62,0.02,0.83
			c-0.02,1.14-0.01,2.8,0,4.96c0.07,0.41,0.13,0.98,0.02,1.64c-0.01,0.09-0.03,0.18-0.05,0.27c-0.19,0.82-0.59,1.08-0.81,1.77
			c-0.24,0.73-0.85,2.59-0.19,4.61c0.26,0.81,0.63,1.39,1.06,2.04c0.5,0.77,1.02,1.35,1.84,2.61c0.16,0.25,0.24,0.37,0.29,0.45
			c0.71,1.16,0.67,1.48,1.03,1.65c0.3,0.13,0.35-0.08,1.16,0.03c0.42,0.05,0.67,0.09,0.87,0.29c0.25,0.24,0.27,0.58,0.29,0.87
			c0.01,0.12,0.03,0.48-0.22,1.26c-0.17,0.53-0.24,0.54-0.39,1c-0.14,0.43-0.32,0.95-0.29,1.51c0.03,0.58,0.25,0.74,0.58,1.55
			c0.14,0.34,0.26,0.87,0.52,1.94c0.03,0.15,0.36,1.54,0.55,2.74c0.28,1.89,0.01,2.16,0.19,5c0.02,0.26,0.03,0.5,0.05,0.73
			c0.11,1.58,0.23,2.45,0.37,3.24c0.33,1.93,0.71,2.93,1,3.58c0.3,0.68,0.35,0.62,0.48,1.03c0.55,1.68,0.09,3.8-0.8,4.03
			c-0.27,0.07-0.51-0.04-0.84-0.19c-0.67-0.31-1.02-0.83-1.39-1.42c-0.3-0.47-0.59-0.92-0.74-1.58c-0.04-0.15-0.4-1.67-0.23-2.45
			c0.02-0.07,0.06-0.23-0.03-0.36c-0.1-0.14-0.28-0.09-0.55-0.22c-0.13-0.07-0.23-0.17-0.42-0.36c-0.22-0.22-0.33-0.34-0.42-0.51
			c-0.03-0.08-0.07-0.19-0.09-0.71c-0.02-0.41-0.03-0.62,0-0.84c0.02-0.22,0.07-0.59,0.25-0.97c0.2-0.4,0.47-0.63,0.55-0.71
			c0.28-0.27,0.37-0.77,0.33-1.43c-0.05-0.99-0.39-2.35-0.78-3.89c-1-3.97-0.94-3.5-0.97-3.71c-0.13-0.96-0.19-2.05-0.93-3.1
			c-0.22-0.31-0.32-0.36-0.52-0.71c-0.57-1-0.28-1.53-0.71-2.39c-0.36-0.74-0.65-0.5-1.19-1.35c-0.49-0.78-0.4-1.2-0.78-2.29
			c-0.33-0.96-0.48-0.84-1.09-2.16c-0.75-1.6-1.08-2.97-1.23-3.65c-0.19-0.87-0.26-1.55-0.32-2.19c-0.07-0.62-0.17-1.63-0.16-2.94
			c0-1.27,0.05-1.63-0.1-2.42c-0.13-0.67-0.33-1.21-0.48-1.58c-0.11-0.26-0.28-0.6-0.54-0.94c-0.2-0.25-0.44-0.51-0.75-0.73
			c-0.33-0.24-0.73-0.54-1.29-0.55c-0.71-0.02-1.22,0.39-1.52,0.64c-0.77,0.63-1.05,1.43-1.29,2.1c-0.22,0.61-0.29,1.06-0.42,1.94
			c-0.1,0.64-0.14,1.22-0.23,2.35c-0.08,1.1-0.12,1.64-0.12,2.16c-0.02,1.34,0.1,1.38,0.06,2.45c-0.04,0.87-0.12,0.79-0.26,2.36
			c-0.1,1.15-0.06,1.18-0.16,2.09c-0.12,1.13-0.2,1.18-0.26,1.97c-0.06,0.89,0.03,0.9,0,2c-0.02,0.7-0.05,0.67-0.19,2.45
			c-0.08,1-0.12,1.51-0.13,2.04c-0.02,0.96,0.03,1.07,0,1.8c-0.03,0.7-0.11,1.19-0.26,2.13c-0.25,1.57-0.37,1.69-0.55,3
			c-0.03,0.24,0,0.07-0.19,1.71c-0.17,1.51-0.2,1.72-0.23,1.87c-0.16,1.08-0.29,1.27-0.48,2.23c-0.25,1.28-0.58,2.94-0.06,4.64
			c0.15,0.52,0.43,1.19,0.45,1.23c0.33,0.8,0.52,1.05,0.87,1.84c0.34,0.76,0.51,1.13,0.61,1.58c0.18,0.77-0.01,0.76,0.07,2.55
			c0.02,0.67-0.05,1.35,0,2.03c0.02,0.37,0.06,0.75-0.17,0.9c-0.25,0.18-0.71-0.03-0.77-0.06c-0.12-0.06-0.24-0.16-0.48-0.36
			c-0.33-0.27-0.33-0.3-0.49-0.42c-0.09-0.07-0.41-0.29-0.84-0.38c-0.3-0.07-0.54-0.05-0.93,0c-0.69,0.07-0.85,0.22-1,0.09
			c-0.12-0.09-0.1-0.24-0.07-1.13c0.04-0.83,0.02-0.72,0.04-0.9c0.08-0.86,0.23-0.95,0.19-1.42c-0.03-0.27-0.15-0.53-0.39-1.06
			c-0.31-0.69-0.5-0.97-0.67-1.33c-0.39-0.77-0.5-1.44-0.59-2c-0.11-0.74-0.07-1.42,0.04-2.77c0.06-0.83,0.13-1.7,0.32-2.87
			c0.26-1.59,0.55-2.87,0.55-2.87s0.15-0.69,0.26-1.68c0.08-0.75,0.06-1.11-0.1-1.48c-0.08-0.18-0.21-0.48-0.52-0.74
			c-0.21-0.19-0.33-0.19-0.48-0.39c-0.17-0.23-0.2-0.48-0.23-0.71c-0.03-0.3,0-0.57,0.07-0.87c0.13-0.59,0.34-1.03,0.51-1.36
			c0.36-0.66,0.61-0.99,0.84-1.35c0.52-0.82,0.72-1.54,0.94-2.29c0.29-1.04,0.33-1.9,0.39-3.58c0.01-0.38,0.03-1.18,0-3.23
			c-0.04-2.01-0.06-3.01-0.13-4.1c-0.12-1.65-0.21-2.8-0.58-4.32c-0.15-0.58-0.37-1.2-0.81-2.45c-0.31-0.87-0.5-1.33-0.74-1.66
			c-0.03-0.06-0.08-0.12-0.13-0.17"/>
		<path class="st0" d="M132.13,155.55c0,0.01,0.01,0.02,0.01,0.04"/>
		<polyline class="st0" points="106.06,156.52 106.1,156.26 106.25,155.25 106.63,152.69 		"/>
		<polyline class="st0" points="130.99,152.86 132.14,155.59 132.16,155.65 		"/>
		<path class="st0" d="M124.35,161.52c0.12,0.54,0.07,0.95,0,1.22c-0.12,0.52-0.35,0.76-0.45,1.42c-0.03,0.23-0.03,0.37-0.03,0.68
			c0,1.3,0,2.05-0.1,2.74c-0.09,0.67-0.24,1.12-0.32,1.39c-0.54,1.85-0.23,4.51,0,6.45c0.55,4.64,1.81,7.6,2.2,8
			c0.01,0.02,0.2,0.21,0.16,0.29c-0.05,0.08-0.32-0.07-0.55,0c-0.31,0.09-0.43,0.51-0.55,0.94c-0.17,0.61-0.35,1.24-0.06,1.93
			c0.12,0.29,0.25,0.63,0.58,0.77c0.29,0.14,0.6,0.05,0.74,0.26c0.08,0.13,0.05,0.28,0.03,0.36c-0.13,0.65-0.27,1.79-0.23,2.48
			c0.03,0.42,0.07,0.97,0.49,1.36c0.06,0.05,0.48,0.44,0.9,0.32c0.42-0.12,0.58-0.69,0.81-1.48c0.05-0.19,0.12-0.46,0.32-1.78
			c0.08-0.51,0.12-0.77,0.16-1.1c0.19-1.4,0.28-2.1,0.26-2.71c-0.01-0.37-0.06-0.46-1.1-3.16c-0.75-1.97-0.89-2.36-0.9-3.03
			c-0.01-0.6,0.1-0.73,0.13-1.81c0.02-0.91-0.03-1.5-0.07-2.06c-0.07-1.19,0-1.65,0.04-3.55c0.05-2.53-0.05-2.68,0-4.58
			c0.03-1.45,0.1-2.63,0.16-3.35"/>
		<polyline class="st0" points="126.97,163.52 126.95,163.51 124.35,161.52 		"/>
		<path class="st0" d="M126.96,163.57c0-0.02,0-0.04-0.01-0.06c-0.03-0.33-0.07-0.65-0.1-0.97c-0.01-0.02-0.01-0.04-0.01-0.06"/>
		<path class="st0" d="M114.68,165.63c0.33,0.5,0.56,1.22,0.87,2.21c0.31,0.99,0.47,1.5,0.35,1.98c-0.2,0.88-0.82,0.95-1.03,1.89
			c-0.15,0.66,0.13,0.78,0.16,1.9c0.02,0.66,0.05,1.5-0.32,2.33c-0.47,1.06-1.11,1.02-1.55,2.12c-0.08,0.21-0.14,0.69-0.26,1.65
			c-0.27,2.21-0.21,2.93-0.16,3.32c0.05,0.39,0.09,0.68,0.2,1.07c0.2,0.72,0.39,0.87,0.41,1.38c0.02,0.25,0.04,0.7-0.25,1.1
			c-0.07,0.09-0.39,0.5-0.91,0.52c-0.4,0.01-0.71-0.22-0.8-0.29c-0.19-0.15-0.2-0.23-0.49-0.52c-0.24-0.24-0.4-0.35-0.48-0.42
			c-0.72-0.63-0.14-2.83,0.1-3.74c0.16-0.62,0.2-0.62,0.32-1.16c0.22-0.98,0.19-1.41,0.29-2.16c0.13-0.98,0.27-1,0.93-3.42
			c0.27-0.96,0.4-1.44,0.46-1.74c0.31-1.63,0.21-3.02,0-5.81c-0.05-0.55-0.03-1.1-0.1-1.65c-0.1-0.73-0.21-1.02-0.03-1.24
			c0.27-0.32,1.01-0.27,1.54,0h0.01c0.04,0.02,0.09,0.05,0.13,0.09c0.17,0.08,0.31,0.21,0.43,0.36c0.02,0.02,0.04,0.04,0.05,0.06
			C114.6,165.51,114.64,165.57,114.68,165.63z"/>
		<path class="st0" d="M115.34,60.85c-0.04,0.12-0.08,0.23-0.14,0.35c-1.98,5.32-6.77,8.7-10.63,12.38c-2.37,2.25-4.39,4.62-5.2,7.6
			c-0.33,0.95-0.49,1.94-0.49,2.92c0,4.99,4.13,9.67,10.36,8.25"/>
		<path class="st0" d="M121.82,59.05c2.22,7.89,12.75,7.27,15.43,14.86c1.23,5.9-3.74,11.52-7.74,13.69"/>
		<path class="st0" d="M132.44,116.89c0,0,0-0.01,0.01-0.01c0.77-1.44,2.38-1,2.63-2.46c0.26-0.29,0.54-0.12,0.82-0.39
			c0.36-0.33,0.11-0.76,0.39-1.01c0.33-0.3,0.81,0.15,1.6,0.09c1.02-0.07,1.08-0.9,2.08-1.01c0.8,0.28,1.52,0.26,2.22,0.11
			c2.21-0.51,4.08-2.44,6.94-0.51c0.15,0.11,0.31,0.22,0.47,0.35c2.62-0.12,4.4-1.3,6,0.87c1.36-0.2,1.24,0.72,2.03,1.35
			c0.66,0.29,1.29-0.57,1.74-0.29c0.53,0.33-0.06,1.65,0.58,2.08c0.56,0.18,1.03,0.24,1.31,0.92c0.9,0.64,1.01,1.65,1.84,2.33
			c0.39,0.69-0.15,0.95,0.24,1.88c0.22,0.53,0.5,0.72,0.48,1.21c-0.15,1.41,1.65,0.05-0.14,2.28c-0.36,2.51-1.71,1.51-2.83,0.21
			c-0.14-0.16-0.28-0.33-0.41-0.5c-0.81,0.04-1.09,1.12-1.17-0.34c-1.16-1.72-2.3-0.62-3.87-0.97c-1.48-0.66-3.89-1.37-6.24-1.03
			c-0.02,0-0.03,0.01-0.05,0.01l-0.06-10.24l0.11,10.23l0.1,9.84c1.06,1.04,1.1,0.24,1.93-0.39c0.44-0.23,0.62,0.01,1.16-0.1
			c1.07-0.21,1.08-1.25,2.09-1.45c1.65,0.21,1.53,0.15,2.46-1.31c1.22-0.59,3.08-2.1,3.49-3.62"/>
		<path class="st0" d="M142.24,112.48c0.09,0.12,0.21,0.31,0.34,0.54c1.08,1.86,1.11,3.7,1.16,4.69c0.08,1.59,0.15,3.14,0.2,4.6
			c0.17,4.43,0.18,8.03-0.12,9.5c-0.02,0.12-0.05,0.23-0.08,0.32"/>
		<path class="st0" d="M149.26,131.89c-0.25,0.61-0.59,0.91-0.82,1.06c-1.1,0.73-2.98,0.32-4.62-1.14
			c-0.04-0.04-0.09-0.08-0.13-0.12"/>
		<path class="st0" d="M143.69,131.69c-0.22-0.04-1.1,0.31-1.5,0.15c-0.46-0.19-0.76-0.37-0.87-0.44c-1.36-0.77-3.71,0.71-4.55-0.19
			c-0.2-0.22-0.25-0.52-0.58-0.63c-0.4-0.14-0.71,0.18-0.96,0c-0.25-0.17-0.04-0.52-0.29-0.82c-0.24-0.28-0.58-0.18-1.21-0.34
			c-0.27-0.07-1.23-0.2-1.69-0.48"/>
		<path class="st0" d="M143.95,122.31L143.95,122.31c-3.69-2.13-3.95,0.83-6.5,0.43c-1.02,0.83-0.78-0.23-1.55-0.77
			c-0.47-0.14-2.36,1.07-3.19,0.68"/>
		<path class="st0" d="M131.72,151.83c0.01-0.03,0.01-0.06,0.03-0.09c0.33-0.99,1.11-1.31,1.49-1.66c1.1-1.01,2.36-0.84,2.86-1.93
			c0.25-0.56,0.21-1.23,0.48-1.26c0.24-0.04,0.43,0.49,0.68,0.43c0.24-0.05,0.2-0.6,0.48-0.67c0.18-0.06,0.42,0.11,0.53,0.29
			c0.25,0.37-0.07,0.77,0.1,0.96c0.2,0.22,0.73-0.18,1.45-0.29c0.99-0.14,1.83,0.37,2.52,0.78c0.39,0.23,1.08,0.65,1.64,1.45
			c0.85,1.18,0.76,2.26,1.6,2.56c0.28,0.11,0.58,0.09,0.73,0.34c0.14,0.25,0.09,0.65-0.05,0.92c-0.1,0.2-0.21,0.25-0.24,0.44
			c-0.06,0.25,0.07,0.48,0.09,0.53c0.24,0.48,0.76,3.84,0.05,6.82c-0.35,1.49-0.86,3.63-2.76,5.03c-1.44,1.07-3.05,1.23-4.3,1.36
			c-1.08,0.11-2.29,0.23-3.68-0.34c-1.41-0.57-2.26-1.55-2.66-2.08"/>
		<path class="st0" d="M131.68,151.96c0.01-0.03,0.01-0.05,0.03-0.08"/>
		<path class="st0" d="M146.16,161.45c0.44-0.82,1.28-2.15,1.65-3.58c0.49-1.89,0.49-3.41,0.48-3.87c-0.02-1.41-0.05-3.11-1.02-4.94
			c-1.17-2.22-3.03-3.28-3.58-3.58c-2.68-1.43-5.69-1.21-7.84-0.24c-0.7,0.32-1.9,0.86-2.7,2.13c-0.59,0.92-0.77,1.91-0.92,2.71
			c-0.11,0.56-0.29,1.02-0.42,1.42c-0.01,0.02-0.01,0.03-0.01,0.04c-0.01,0.01-0.01,0.02-0.01,0.02c-0.03,0.1-0.05,0.19-0.07,0.27
			c0,0.02-0.01,0.04-0.01,0.05c-0.02,0.1-0.03,0.19-0.03,0.28"/>
		<path class="st0" d="M135.85,160.82c-0.81-1.07-1.35-2.77-0.67-4.3c0.42-0.97,1.18-1.52,1.55-1.75c0.2-0.12,1.13-0.66,2.42-0.58
			c0.27,0.02,0.69,0.08,1.16,0.26c0.3,0.1,0.61,0.25,0.92,0.47c1.29,0.9,1.62,2.27,1.69,2.61c0.29,1.38-0.06,3.15-1.4,4.21
			c-1.1,0.87-2.34,0.84-2.57,0.82c-0.1,0-0.2-0.01-0.29-0.03C137.01,162.33,136.06,161.08,135.85,160.82z"/>
		<path class="st0" d="M135.85,160.82c0.06-0.35,0.54-1.27,0.92-1.74c0.43-0.52,0.75-0.47,1.17-0.97c0.5-0.6,0.26-0.95,0.72-1.79
			c0.35-0.62,1.05-1.44,1.45-1.3c0.26,0.09,0.34,0.53,0.37,1.17c0.02,0.33,0.02,0.73,0.02,1.15c0,1.17,0,1.76-0.29,2.18
			c-0.56,0.8-1.48,0.67-1.79,1.45c-0.17,0.42,0.13,1.21,0.24,1.51"/>
		<line class="st0" x1="137.84" y1="158.57" x2="138.42" y2="160.97"/>
		<line class="st0" x1="138.35" y1="157.97" x2="139.99" y2="159.13"/>
		<polyline class="st0" points="139.63,155.65 140.48,156.19 140.5,156.2 		"/>
		<path class="st0" d="M108.23,111.32c-3.7-0.14-7.08,0.88-10.01,2.71c-0.41,0.25-0.8,0.52-1.19,0.81
			c-3.12,2.27-5.65,5.49-7.44,9.17c-1.25,2.57-2.13,5.37-2.58,8.24c-0.18,1.02-0.29,2.06-0.34,3.1c-0.01,0.33-0.03,0.66-0.03,0.99
			c0.02,0.65,0.06,1.55,0.15,2.61c0.09,1.11,0.17,2.06,0.39,3.29c0.16,0.92,0.34,1.92,0.77,3.15c0,0,0.48,1.36,1.26,2.76
			c1.31,2.33,2.81,4.11,4.18,5.43c2.29,2.2,4.21,3.09,4.21,3.09c2.91,1.36,5.73,1.59,7.82,1.49"/>
		<path class="st0" d="M108.71,107.65c-0.49,0.29-0.9,0.36-1.16,0.38c-0.46,0.04-0.56-0.09-1.55-0.24
			c-0.84-0.13-0.89-0.06-1.16-0.19c-0.59-0.29-0.72-0.79-0.97-0.73c-0.29,0.07-0.13,0.73-0.53,0.97c-0.42,0.25-0.89-0.31-1.45-0.05
			c-0.36,0.16-0.36,0.47-0.63,0.48c-0.39,0.03-0.51-0.59-0.92-0.72c-0.78-0.25-1.95,1.38-2.03,1.5c-1.23,1.74-0.9,3.07-1.94,3.53
			c-0.14,0.06-0.24,0.08-0.33,0.08c-0.24,0-0.42-0.12-1.02,0.02c-1.28,0.3-1.43,1.1-2.67,1.35c-0.73,0.15-0.86-0.1-1.3,0.15
			c-0.74,0.41-0.51,1.15-1.26,1.64c-0.63,0.41-1.23,0.16-1.5,0.63c-0.07,0.13-0.07,0.23-0.05,0.73c0.08,1.47,0.15,1.68,0.05,2.08
			c-0.13,0.52-0.31,0.41-0.58,1.06c-0.35,0.85-0.16,1.32-0.29,2.13c-0.09,0.56-0.3,1-0.56,1.42c-0.15,0.26-0.33,0.5-0.51,0.76
			c-1.1,1.54-2.16,1.76-2.17,2.71c-0.01,0.22,0.05,0.77,0.14,1.31c0.07,0.35,0.13,0.6,0.15,0.67c0.12,0.5,0.12,1.42-0.07,2.52
			c-0.18,1.02-0.52,2.2-1.09,3.34c-0.19,0.37-0.45,0.86-0.49,1.55c-0.02,0.4-0.05,1.05,0.34,1.59c0.22,0.31,0.46,0.42,0.53,0.78
			c0.07,0.32-0.04,0.59-0.09,0.72c-0.35,0.9-0.57,2.71,0.14,3.68c0.29,0.39,0.51,0.35,0.63,0.73c0.18,0.57-0.28,0.91-0.1,1.54
			c0.12,0.4,0.32,0.33,0.54,0.83c0.28,0.67,0.01,1.04,0.29,1.3c0.34,0.33,0.88-0.1,1.21,0.2c0.3,0.27-0.05,0.78,0,1.79
			c0.04,1.03,0.43,1.05,0.43,1.98c0,1.02-0.47,1.39-0.19,1.84c0.28,0.46,0.87,0.2,1.3,0.58c0.27,0.24,0.58,0.81-0.38,4.55
			c-0.49,1.91-0.93,3.15-0.34,4.16c0.1,0.17,0.22,0.32,0.34,0.63c0.3,0.77,0.14,1.38,0,2.37c-0.26,1.82,0.01,1.52-0.24,3.24
			c-0.07,0.44-0.16,0.93,0,1.55c0.14,0.59,0.34,0.65,0.48,1.11c0.25,0.84-0.26,1.14-0.39,2.47c-0.05,0.58-0.17,1.77,0.53,2.42
			c0.04,0.03,0.33,0.29,0.65,0.36c0.11,0.02,0.22,0.02,0.32-0.02c0.12-0.04,0.53-0.23,0.68-1.84c0.09-0.99,0.02-1.74-0.29-3.87
			c-0.25-1.75-0.38-2.63-0.39-2.66c-0.23-0.73-0.59-1.43-0.29-2.13c0.13-0.3,0.32-0.47,0.44-0.58c0.36-0.36,0.92-1.22,0.82-5.81
			c-0.03-1.38-0.1-2.28,0.44-2.61c0.21-0.14,0.55-0.19,0.72-0.05c0.2,0.17,0.14,0.6,0,1.45c-0.1,0.63-0.18,0.81-0.05,1.02
			c0.16,0.25,0.39,0.15,0.73,0.43c0.12,0.1,0.24,0.24,0.58,0.97c0.23,0.5,0.36,0.77,0.44,1.02c0.34,1.06-0.21,1.46-0.15,2.9
			c0.05,1.12,0.39,1.16,0.29,2.03c-0.1,0.88-0.47,1.05-0.73,1.89c-0.33,1.11-0.08,2.1,0.2,3.15c0.47,1.8,1.12,2.06,1.06,3.33
			c-0.03,0.73-0.23,0.55-0.43,1.84c-0.2,1.31-0.04,1.75-0.39,2.71c-0.25,0.7-0.4,0.62-0.58,1.21c-0.33,1.05-0.27,2.54,0.39,2.81
			c0.5,0.21,1.36-0.33,1.69-1.02c0.31-0.64-0.06-0.95,0.1-1.88c0.15-0.95,0.73-1.87,1.5-2.38c0.94-0.62,1.44-0.12,2.08-0.62
			c1.37-1.09,1-5-0.73-6c-0.46-0.27-0.95-0.3-1.3-0.83c-0.43-0.63-0.28-1.43-0.2-1.84c0.17-0.89,0.64-1.47,0.97-1.88
			c0.3-0.38,0.65-0.81,1.26-1.12c0.76-0.37,0.99-0.08,1.35-0.38c0.53-0.44,0.49-1.48,0.39-3.54c-0.03-0.61-0.07-1.05,0.14-1.16
			c0.25-0.12,0.54,0.32,1.46,0.78c0.78,0.39,0.93,0.25,1.3,0.58c0.54,0.48,0.48,1,0.87,1.11c0.19,0.05,0.5,0.02,1.02-0.48"/>
		<path class="st0" d="M96.23,180.76c0.2-0.22,0.58-0.37,0.82-0.24c0.44,0.23,0.24,1.26,0.19,1.54c-0.11,0.57-0.4,1.38-0.68,1.36
			c-0.23-0.02-0.34-0.64-0.43-1.11C96,181.62,95.91,181.1,96.23,180.76z"/>
		<path class="st0" d="M92.16,186.26c0.44-0.11,0.79,0.13,0.87,0.19c0.42,0.31,0.72,1.04,0.34,1.55c-0.32,0.42-0.96,0.5-1.41,0.24
			c-0.53-0.31-0.68-1.03-0.43-1.5C91.73,186.37,92.13,186.26,92.16,186.26z"/>
		<path class="st0" d="M87.93,179.36c-0.11,0-0.22,0.03-0.32,0.09c-0.45,0.3-0.44,1.34,0.1,1.89c0.46,0.47,1.34,0.63,1.69,0.24
			c0.03-0.03,0.06-0.06,0.08-0.1c0.24-0.43-0.05-1.18-0.46-1.59C88.75,179.62,88.3,179.36,87.93,179.36z"/>
		<polyline class="st0" points="97.19,115.06 104.21,129.23 107.1,135.08 101.62,135.16 86.97,135.36 		"/>
		<polyline class="st0" points="93.47,153.49 98.84,146.34 107.1,135.35 		"/>
		<path class="st0" d="M96.5,129.78c-0.85,1.71-2.29,2.72-3.24,2.25c-0.94-0.46-1.02-2.23-0.18-3.94c0.85-1.71,2.29-2.72,3.24-2.25
			C97.26,126.3,97.34,128.07,96.5,129.78z"/>
		<path class="st0" d="M106.45,120.78c0,1.25-0.64,2.27-1.42,2.27c-0.79,0-1.42-1.02-1.42-2.27c0-1.26,0.63-2.28,1.42-2.28
			C105.81,118.5,106.45,119.52,106.45,120.78z"/>
		<path class="st0" d="M101.24,150.82c0.29-0.1,0.61-0.13,0.94-0.07c0.96,0.19,1.58,1.12,1.4,2.08c-0.11,0.53-0.43,0.95-0.86,1.19
			c-0.36,0.21-0.79,0.29-1.22,0.2c-0.96-0.19-1.59-1.12-1.4-2.08C100.23,151.51,100.68,151.03,101.24,150.82z"/>
		<path class="st0" d="M92.58,144.71c-0.26,0.01-0.84-1.11-0.45-2c0.42-0.97,1.75-1.11,2.19-1.16c0.5-0.05,1.53-0.16,1.94,0.45
			c0.51,0.76-0.39,1.98-0.45,2.06c-0.71,0.94-1.87,1.22-1.94,1.1c-0.05-0.08,0.42-0.3,0.65-0.9c0.11-0.3,0.24-0.92-0.07-1.16
			c-0.26-0.21-0.73-0.07-1.03,0.13C92.71,143.71,92.82,144.7,92.58,144.71z"/>
		<path class="st0" d="M93.47,123.68c0.37-0.01,0.78-0.49,0.72-0.84c-0.05-0.32-0.47-0.39-0.45-0.65c0.02-0.23,0.38-0.26,0.45-0.51
			c0.11-0.36-0.39-1.02-0.96-1.03c-0.62-0.02-1.1,0.69-1.1,1.22c-0.01,0.49,0.39,1.1,0.39,1.1s0.47,0.71,0.94,0.71H93.47z"/>
		<path class="st0" d="M102.13,117.16c0.27-0.11-0.06-0.87,0.39-1.35c0.29-0.33,0.87-0.46,1.22-0.26c0.6,0.33,0.43,1.48,0.58,1.48
			c0.13,0.01,0.43-0.87,0.2-1.8c-0.09-0.37-0.32-1.27-1.1-1.55c-0.76-0.27-1.64,0.17-2.07,0.84c-0.4,0.63-0.34,1.4-0.06,1.93
			C101.5,116.84,101.91,117.25,102.13,117.16z"/>
		<path class="st0" d="M105.31,128.45c-0.62-0.31-0.71-1.09-0.73-1.29c-0.04-0.38-0.02-1.21,0.39-1.35c0.39-0.14,0.92,0.4,1.16,0.84
			c0.35,0.63,0.39,1.61-0.07,1.87C105.77,128.68,105.39,128.49,105.31,128.45z"/>
		<path class="st0" d="M102.66,130c-0.07-0.13-0.16-0.22-0.27-0.26c-0.55-0.17-1.6,0.94-1.42,1.68c0.09,0.37,0.43,0.37,0.58,0.84
			c0.21,0.63-0.25,1.14-0.07,1.29c0.03,0.02,0.07,0.03,0.12,0.03c0.26,0,0.74-0.27,1.05-0.68c0.65-0.87,0.3-2.03,0.19-2.38
			C102.78,130.32,102.72,130.14,102.66,130z"/>
		<path class="st0" d="M100.07,148.9c0.21,0.1,0.36,0.13,0.48,0.13c0.11,0,0.18-0.03,0.22-0.06c0,0,0.14-0.09,0.33-0.91
			c0.2-0.26,0.31-0.56,0.31-0.82c0-0.15-0.04-0.29-0.12-0.4c-0.31-0.44-1.19-0.31-1.61,0.13c-0.39,0.4-0.44,1.13-0.2,1.29
			c0.06,0.04,0.23,0.09,0.65-0.2"/>
		<path class="st0" d="M92.39,136.97c0.61-0.14,1.16,0.25,1.22,0.71c0.05,0.33-0.16,0.7-0.51,0.9"/>
		<line class="st0" x1="103.61" y1="144.46" x2="104.57" y2="142.97"/>
		<path class="st0" d="M93,149.87c-0.14-0.11,0.06-0.8,0.48-1.29c0.92-1.06,2.72-0.98,2.78-0.77c0.04,0.13-0.67,0.25-1.87,1.09
			C93.52,149.51,93.14,149.97,93,149.87z"/>
		<path class="st0" d="M105.42,155.13c-0.03,0.25-0.1,0.49-0.19,0.68c-0.43,0.91-1.53,1.32-1.68,1.16
			c-0.12-0.13,0.47-0.51,0.64-1.42c0.14-0.7-0.09-1.12,0.2-1.36c0.05-0.04,0.11-0.07,0.17-0.09c0.2-0.06,0.44-0.02,0.6,0.09
			C105.42,154.37,105.47,154.75,105.42,155.13z"/>
		<path class="st0" d="M96.52,121.23c-0.22-0.33-0.43-0.65-0.65-0.97"/>
		<line class="st0" x1="91.68" y1="126.19" x2="90.71" y2="125.78"/>
		<line class="st0" x1="100.37" y1="129.72" x2="100.28" y2="127.94"/>
		<path class="st0" d="M100.95,139.97c-0.27-0.13-0.72,0.31-0.76,0.35c-0.07,0.07-0.63,0.65-0.38,1.1c0.12,0.23,0.43,0.39,0.71,0.32
			c0.27-0.07,0.39-0.35,0.47-0.55C101.17,140.76,101.22,140.1,100.95,139.97z"/>
		<path class="st0" d="M100.5,140.84c-0.06,0.06-0.11,0.11-0.1,0.17c0.02,0.07,0.14,0.12,0.22,0.09c0.14-0.05,0.15-0.34,0.08-0.38
			C100.65,140.69,100.52,140.81,100.5,140.84z"/>
		<path class="st0" d="M125,71.06c0.14-0.3,0.53-1.01,1.37-1.54c0.86-0.55,1.7-0.59,2.03-0.58"/>
		<path class="st0" d="M125.63,76.24c0.33-0.28,0.81-0.64,1.47-0.92c0.49-0.21,0.94-0.32,1.3-0.38"/>
		<path class="st0" d="M127.86,81.48c0.47-0.3,1.19-0.69,2.14-0.93c1.01-0.26,1.88-0.25,2.44-0.2"/>
		<path class="st0" d="M110.79,83.56c-0.6-0.05-1.56-0.05-2.66,0.28c-1.15,0.34-1.98,0.88-2.47,1.26"/>
		<path class="st0" d="M112.02,78.37c-0.87-0.09-1.97-0.13-3.21,0c-1.67,0.18-3.04,0.62-4.02,1.02"/>
		<path class="st0" d="M113.39,73.98c-0.94-0.14-2.03-0.24-3.23-0.25c-1.35-0.01-2.55,0.1-3.58,0.25"/>
		<polyline class="st0" points="118.72,54.19 118.97,58.77 119.55,63.13 120.32,74.94 121.39,83.06 121.39,93.18 120.9,98.84 
			120.05,115.39 118.72,137.41 118.72,139.39 		"/>
		<path class="st0" d="M109.94,140.63c-0.76-0.26-1.83,0.1-2.1,0.72c-0.22,0.51,0.23,0.89,0.48,1.79c0.35,1.23,0.01,2.29-0.48,3.82
			c-0.7,2.18-1.56,2.86-1.26,4.21c0.04,0.2,0.21,0.92,0.63,1.02c0.3,0.07,0.68-0.11,1.02-0.42c0.37-0.36,0.69-0.88,0.77-1.42
			c0.07-0.43-0.03-0.75-0.1-1.01c-0.4-1.6-0.11-3.86,0.97-5.33c0.29-0.39,0.42-0.42,0.55-0.75
			C110.75,142.43,110.48,141.28,109.94,140.63c-0.21-0.26-0.47-0.44-0.75-0.49h-0.01c-0.5-0.08-1.01,0.27-1.28,0.45
			c-0.32,0.22-0.51,0.46-0.78,0.79c-0.44,0.54-0.7,1.03-0.83,1.28c-0.02,0.05-0.13,0.27-0.26,0.59c-0.03,0.06-0.09,0.22-0.17,0.46
			c-0.09,0.28-0.21,0.67-0.3,1.13c-0.4,1.99-0.17,4.08-0.08,5.01c0.02,0.16,0.07,0.59,0.24,1.13c0.22,0.65,0.44,1.32,0.91,1.5
			c0.02,0.01,0.04,0.01,0.06,0.02c0.48,0.14,1.07-0.25,1.57-0.7c0.28-0.24,0.53-0.5,0.71-0.69c0.96-1.02,1.38-2.08,1.58-2.6
			c0.06-0.16,0.35-0.93,0.5-1.99c0.11-0.77,0.1-1.35,0.08-2.36c-0.02-0.78-0.03-1.18-0.14-1.7c-0.18-0.86-0.29-1.39-0.73-1.69
			C110.16,140.71,110.06,140.66,109.94,140.63z"/>
		<path class="st0" d="M106.58,145.39c-0.16-0.47-0.56-1.21-0.72-1.68"/>
		<path class="st0" d="M106.58,145.39c0.17,0.51,0.95,1.09,1.26,1.57"/>
		<path class="st0" d="M128.51,140.76c0.11,1.87,0.51,3.28,0.87,4.24c0.1,0.27,0.21,0.53,0.31,0.76c0.58,1.33,1.13,2.14,1.29,3.65
			c0.16,1.57-0.2,2.94-0.44,2.95c-0.49,0.01-0.37-5.65-2.32-6.15c-0.24-0.06-0.45-0.03-0.58,0"/>
		<path class="st0" d="M129.75,145.73c0.01-0.46-0.03-1.39,0.44-1.9c0.33-0.35,1.15-0.49,1.31-0.52"/>
		<path class="st0" d="M108.18,149.96c0.11-0.29,0.21-0.65,0.24-1.02c0.06-0.76-0.23-0.8-0.26-1.55c-0.05-1.13,0.58-1.57,1.16-3.78
			c0.04-0.14,0.19-0.72,0.05-0.92c-0.01-0.01-0.03-0.03-0.05-0.04c-0.17-0.11-0.46,0.24-0.67,0.12c-0.13-0.07-0.15-0.31-0.17-0.8
			c-0.02-0.68,0.07-0.75,0.1-0.78c0.08-0.05,0.24,0,0.55,0.1c0.21,0.07,0.32,0.1,0.42,0.16c0.05,0.03,0.35,0.22,0.48,0.58
			c0,0,0.07,0.18,0,1c0,0-0.12,0.09-0.16,0.1c-0.09,0.03-0.27-0.2-0.44-0.48c-0.24-0.4-0.46-0.9-0.4-0.94
			c0.02-0.01,0.08,0.03,0.23,0.23"/>
		<path class="st0" d="M108.18,149.96c0-0.02-0.01-0.02-0.02-0.02c-0.1-0.02-0.25,0.33-0.35,0.58c-0.05,0.1-0.15,0.34-0.13,0.35
			C107.7,150.88,107.97,150.51,108.18,149.96z"/>
		<path class="st0" d="M108.03,147.97c-0.14,0.62-0.33,1.08-0.48,1.38c-0.05,0.11-0.24,0.49-0.36,1c-0.03,0.15-0.07,0.37,0,0.62
			c0.04,0.12,0.1,0.36,0.29,0.42c0.16,0.05,0.32-0.06,0.39-0.1c0.32-0.21,0.37-0.61,0.39-0.74c0.03-0.24,0-0.55-0.08-0.59"/>
		<path class="st0" d="M130.63,149.71l-0.57-2.03l-0.73-1.5l-0.62-1.76l-0.45-1.45v-0.68c-0.06-0.45-0.12-0.53-0.16-0.53
			c-0.22-0.02-0.78,1.69-0.26,2.43c0.08,0.13,0.25,0.31,0.32,0.62c0.05,0.21,0.01,0.35,0.1,0.58c0.06,0.18,0.16,0.3,0.22,0.38
			l0.31,0.1"/>
		<line class="st0" x1="130.45" y1="149.88" x2="130.45" y2="149.39"/>
		<path class="st0" d="M188.52,138.42c0,55.16-31.25,99.87-69.8,99.87s-69.81-44.71-69.81-99.87s31.26-99.87,69.81-99.87
			S188.52,83.26,188.52,138.42z"/>
		<path class="st0" d="M114.22,155.73c0.37,0.39,1.2,1.16,2.48,1.48c1.58,0.39,2.87-0.13,3.6-0.43c1.48-0.61,2.43-1.58,2.92-2.18"/>
	</g>
</g>
</svg>
