<?xml version="1.0" encoding="utf-8"?>
<!-- Generator: Adobe Illustrator 26.0.3, SVG Export Plug-In . SVG Version: 6.00 Build 0)  -->
<svg version="1.1" xmlns="http://www.w3.org/2000/svg" xmlns:xlink="http://www.w3.org/1999/xlink" x="0px" y="0px"
	 viewBox="0 0 68.9 185.49" style="enable-background:new 0 0 68.9 185.49;" xml:space="preserve">
<style type="text/css">
	.st0{fill:none;}
	.st1{fill:#141416;stroke:#000000;stroke-miterlimit:10;}
	.st2{fill:#171830;}
	.st3{fill:#616160;}
</style>
<g id="Слой_2">
	<ellipse class="st0" cx="34.07" cy="96.71" rx="82.19" ry="100.9"/>
	<line class="st1" x1="24.49" y1="61.74" x2="24.6" y2="60.84"/>
</g>
<g id="Слой_1">
	<g id="XMLID_00000062153367047527056970000011148663445409927331_">
		<g>
			<path class="st2" d="M59.4,150.64c0.67,1.68,0.11,3.79-0.97,4.02c-0.33,0.07-0.62-0.04-1.02-0.19c-0.81-0.31-1.23-0.83-1.68-1.42
				c-0.36-0.47-0.71-0.92-0.89-1.58c-0.05-0.15-0.48-1.67-0.28-2.45c0.02-0.07,0.07-0.23-0.04-0.36c-0.12-0.14-0.34-0.09-0.67-0.22
				c-0.16-0.07-0.28-0.17-0.51-0.36c-0.27-0.22-0.4-0.34-0.51-0.51c-0.04-0.08-0.08-0.19-0.11-0.71c-0.02-0.41-0.04-0.62,0-0.84
				c0.02-0.22,0.08-0.59,0.3-0.97c0.24-0.4,0.57-0.63,0.67-0.71c0.34-0.27,0.45-0.77,0.4-1.43l3.06-0.13
				c0.13,1.58,0.28,2.45,0.45,3.23c0.4,1.93,0.86,2.93,1.21,3.57C59.18,150.29,59.24,150.23,59.4,150.64z"/>
			<path class="st2" d="M16.92,90.97c0.8-1.82,2.15-3.41,3.98-4.34v-2.6l-0.06-0.09c0.18-0.09,0.35-0.19,0.53-0.3
				c0.83-0.51,0.85-0.7,1.49-1c1.67-0.78,3.52-0.35,3.66-0.32c1.46,0.35,2.27,1.17,2.54,1.47c0.59,0.59,1.22,1.2,1.89,1.81
				c0.5,0.46,0.99,0.89,1.48,1.3c0.22-0.06,0.53-0.18,0.83-0.38c0.58-0.39,0.81-0.88,0.89-1.1c0.34-0.51,0.85-1.21,1.61-1.94
				c0.35-0.32,1.37-1.31,2.59-1.87c2.55-1.16,5.47-0.44,6.4-0.17l-0.12,5.1l-0.01,0.44c4.79,1.57,4.74,10.83,2.79,13.29l1.25,2.45
				l0.02,0.06c0.12,0.32,0.44,1.24,0.54,1.9c0.04,0.22,0.06,0.43,0.06,0.43c0.02,0.35,0.02,0.62,0.02,0.83
				c-0.02,1.14-0.01,2.8,0,4.95c0.1,0.46,0.17,1.14-0.04,1.91c-0.23,0.82-0.71,1.08-0.98,1.77c-0.29,0.73-1.03,2.59-0.23,4.6
				c0.31,0.81,0.76,1.39,1.28,2.04c0.6,0.77,1.23,1.35,2.23,2.61c0.19,0.25,0.29,0.37,0.35,0.45c0.86,1.16,0.81,1.48,1.25,1.65
				c0.36,0.13,0.42-0.08,1.4,0.03c0.51,0.05,0.81,0.09,1.05,0.29c0.3,0.24,0.33,0.58,0.35,0.87c0.01,0.12,0.04,0.48-0.27,1.26
				c-0.21,0.53-0.29,0.54-0.47,1c-0.17,0.43-0.39,0.95-0.35,1.51c0.04,0.58,0.3,0.74,0.7,1.55c0.17,0.34,0.31,0.87,0.63,1.94
				c0.04,0.15,0.44,1.54,0.67,2.74c0.34,1.89,0.01,2.16,0.23,4.99c0.02,0.26,0.04,0.5,0.06,0.73l-3.06,0.13
				c-0.06-0.99-0.47-2.35-0.94-3.88c-1.21-3.96-1.14-3.49-1.17-3.7c-0.16-0.96-0.23-2.05-1.12-3.1c-0.27-0.31-0.39-0.36-0.63-0.71
				c-0.69-1-0.34-1.53-0.86-2.39c-0.44-0.74-0.79-0.5-1.44-1.35c-0.59-0.78-0.48-1.2-0.94-2.29c-0.4-0.96-0.58-0.84-1.32-2.16
				c-0.91-1.6-1.31-2.97-1.49-3.64c-0.23-0.87-0.31-1.55-0.39-2.19c-0.08-0.62-0.21-1.63-0.19-2.94c0-1.27,0.06-1.63-0.12-2.42
				c-0.16-0.67-0.4-1.21-0.58-1.58c-0.13-0.26-0.34-0.6-0.65-0.94c-0.24-0.25-0.53-0.51-0.91-0.73c-0.4-0.24-0.88-0.54-1.56-0.55
				c-0.86-0.02-1.48,0.39-1.84,0.64c-0.93,0.63-1.27,1.43-1.56,2.1c-0.27,0.61-0.35,1.06-0.51,1.94c-0.12,0.64-0.17,1.22-0.28,2.35
				c-0.1,1.1-0.15,1.64-0.15,2.16c-0.02,1.34,0.12,1.38,0.07,2.45c-0.05,0.87-0.15,0.79-0.31,2.36c-0.12,1.15-0.07,1.18-0.19,2.09
				c-0.15,1.13-0.24,1.18-0.31,1.97c-0.07,0.89,0.04,0.9,0,2c-0.02,0.7-0.06,0.67-0.23,2.45c-0.1,1-0.15,1.51-0.16,2.04
				c-0.02,0.96,0.04,1.07,0,1.8c-0.04,0.7-0.13,1.19-0.31,2.13c-0.3,1.57-0.45,1.69-0.67,3c-0.04,0.24,0,0.07-0.23,1.71
				c-0.21,1.51-0.24,1.72-0.28,1.87c-0.19,1.08-0.35,1.27-0.58,2.23c-0.3,1.28-0.7,2.94-0.07,4.63c0.18,0.52,0.52,1.19,0.54,1.23
				c0.4,0.8,0.63,1.05,1.05,1.84c0.41,0.76,0.62,1.13,0.74,1.58c0.22,0.77-0.01,0.76,0.08,2.55c0.02,0.67-0.06,1.35,0,2.03
				c0.02,0.37,0.07,0.75-0.21,0.9c-0.3,0.18-0.86-0.03-0.93-0.06c-0.15-0.06-0.29-0.16-0.58-0.36c-0.4-0.27-0.4-0.3-0.59-0.42
				c-0.11-0.07-0.5-0.29-1.02-0.38c-0.36-0.07-0.65-0.05-1.12,0c-0.83,0.07-1.03,0.22-1.21,0.09c-0.15-0.09-0.12-0.24-0.08-1.13
				c0.05-0.83,0.02-0.72,0.05-0.9c0.1-0.86,0.28-0.95,0.23-1.42c-0.04-0.27-0.18-0.53-0.47-1.06c-0.37-0.69-0.6-0.97-0.81-1.33
				c-0.47-0.77-0.6-1.44-0.71-2c-0.13-0.74-0.08-1.42,0.05-2.77c0.07-0.83,0.16-1.7,0.39-2.87c0.31-1.59,0.67-2.87,0.67-2.87
				s0.18-0.69,0.31-1.68c0.1-0.75,0.07-1.11-0.12-1.48c-0.1-0.18-0.25-0.48-0.63-0.74c-0.25-0.19-0.4-0.19-0.58-0.39
				c-0.21-0.23-0.24-0.48-0.28-0.71c-0.04-0.3,0-0.57,0.08-0.87c0.16-0.59,0.41-1.03,0.62-1.36c0.44-0.66,0.74-0.99,1.02-1.35
				c0.63-0.82,0.87-1.54,1.14-2.29c0.35-1.04,0.4-1.9,0.47-3.57c0.01-0.38,0.04-1.18,0-3.22c-0.05-2.01-0.07-3.01-0.16-4.09
				c-0.15-1.65-0.25-2.8-0.7-4.31c-0.18-0.58-0.45-1.2-0.98-2.45c-0.37-0.87-0.6-1.33-0.89-1.66c-0.04-0.06-0.1-0.12-0.16-0.17
				c-0.01-0.02-0.04-0.04-0.06-0.06c-0.15-0.15-0.31-0.28-0.52-0.36c-0.05-0.04-0.11-0.07-0.16-0.09h-0.01
				c-0.37-0.19-0.89-0.37-1.44-0.27c-0.29,0.05-0.71,0.2-1.4,1c-0.7,0.82-1.09,1.61-1.63,3.06c-0.31,0.8-0.56,1.45-0.86,2.45
				c-0.53,1.74-0.81,3.08-0.86,3.35c-0.35,1.76-0.58,2.9-0.56,4.44c0.04,1.77,0.4,3.55-0.3,4.8c-0.08,0.13-0.23,0.37-0.35,0.74
				c-0.27,0.78-0.06,1.17-0.24,1.93c-0.1,0.42-0.18,0.43-0.46,1.1c-0.44,1.03-0.31,1.2-0.75,2.55c-0.47,1.5-0.86,2.01-1.02,2.19
				c-0.34,0.43-0.48,0.47-0.86,0.87c-0.82,0.91-1.02,1.74-1.28,2.46c-0.56,1.51-1.08,1.53-1.92,2.92l-3.39-0.3
				c0.67-1.28,1.44-2.98,2.26-5.23c1.86-2.95,1.79-3.4,1.68-3.5c-0.01-0.01-0.15-0.14-0.31-0.29c-0.28-0.27-0.28-0.26-0.35-0.33
				c-0.07-0.07-0.27-0.28-0.42-0.58c-0.06-0.1-0.15-0.26-0.19-0.48c-0.08-0.33-0.04-0.59,0-0.78c0.07-0.4,0.12-0.68,0.39-0.93
				c0.25-0.24,0.76-0.51,1.12-0.39c0.52,0.17,0.47,1,0.67,1c0.21,0,0.39-0.86,0.51-1.39c0.44-1.83,0.73-1.85,1.02-3.21
				c0.15-0.69,0.17-1.44,0.19-2.9c0.05-2.3,0.08-3.71-0.16-5.61c-0.07-0.61-0.25-1.85-0.42-3c-0.13-0.86-0.23-1.39-0.28-2.16
				c-0.06-0.88-0.02-1.61,0-2.1v-2.96v-2.33c0.33-0.41,0.77-1.03,1.17-1.83c0.51-1.01,0.79-1.94,0.93-2.71l0.05-0.26l0.64-3.56
				l0.18-0.14C15.78,97.63,15.57,94.01,16.92,90.97z"/>
			<path class="st2" d="M21.23,39.6l-0.28-0.02C13.42,41,8.43,36.33,8.43,31.34c0-0.98,0.19-1.97,0.59-2.92
				c2.58-7.85,15.29-11.38,19.16-19.95c0.3-3.16,1.21-5.87,4.24-7c0.42,0.01,1.02,0.07,1.58,0.35c1.46,0.72,1.63,2.31,2.16,4.5
				c2.68,7.88,15.42,7.26,18.66,14.84c1.49,5.89-4.52,11.5-9.36,13.67l-0.34,0.07c0.1,0.3,0.17,0.58,0.24,0.85
				c1.68,6.04,2.35,11.09,2.98,15.95c0.3,2.35,0.5,4.27,0.62,5.55c0,1.42,0,2.84,0,4.25c0.25,5.02-0.46,10.97-0.47,15.97
				c-0.28,4.03,2.01,12.18-3.71,3.96c-0.01,0-0.02-0.01-0.04-0.01c-0.93-0.27-3.85-0.99-6.4,0.17c-1.22,0.56-2.24,1.55-2.59,1.87
				c-0.76,0.73-1.27,1.43-1.61,1.94c-0.08,0.22-0.31,0.71-0.89,1.1c-0.3,0.2-0.62,0.32-0.83,0.38c-0.48-0.41-0.98-0.84-1.48-1.3
				c-0.67-0.61-1.29-1.22-1.89-1.81c-0.27-0.3-1.08-1.12-2.54-1.47c-0.15-0.03-2-0.46-3.66,0.32c-0.64,0.3-0.65,0.49-1.49,1
				c-0.18,0.11-0.35,0.21-0.53,0.3c-0.8,0.43-1.54,0.68-2.07,0.83c0.37-9.5,0.31-20.69,1.87-30.21
				C20.43,49.64,20.6,44.59,21.23,39.6z"/>
			<path class="st2" d="M42.37,110.63l0.02,0.01c-0.07,0.72-0.16,1.9-0.19,3.34c-0.06,1.9,0.06,2.05,0,4.57
				c-0.05,1.9-0.13,2.36-0.05,3.54c0.05,0.56,0.11,1.15,0.08,2.06c-0.04,1.08-0.17,1.21-0.16,1.81c0.01,0.67,0.18,1.06,1.09,3.03
				c1.26,2.7,1.32,2.79,1.33,3.16c0.02,0.61-0.08,1.31-0.31,2.71c-0.05,0.33-0.1,0.59-0.19,1.1c-0.24,1.32-0.33,1.59-0.39,1.78
				c-0.28,0.79-0.47,1.36-0.98,1.48c-0.51,0.12-1.02-0.27-1.09-0.32c-0.51-0.39-0.56-0.94-0.59-1.36c-0.05-0.69,0.12-1.83,0.28-2.48
				c0.02-0.08,0.06-0.23-0.04-0.36c-0.17-0.21-0.54-0.12-0.89-0.26c-0.4-0.14-0.56-0.48-0.7-0.77c-0.35-0.69-0.13-1.32,0.07-1.93
				c0.15-0.43,0.29-0.85,0.67-0.94c0.28-0.07,0.6,0.08,0.67,0c0.05-0.08-0.18-0.27-0.19-0.29c-0.47-0.4-2-3.35-2.66-7.99
				c-0.28-1.94-0.65-4.59,0-6.44c0.1-0.27,0.28-0.72,0.39-1.39c0.12-0.69,0.12-1.44,0.12-2.74c0-0.31,0-0.45,0.04-0.68
				c0.12-0.66,0.4-0.9,0.54-1.42c0.08-0.27,0.15-0.68,0-1.22L42.37,110.63z"/>
			<path class="st2" d="M28.59,114.95c0.37,0.99,0.57,1.5,0.42,1.98c-0.24,0.88-0.99,0.95-1.25,1.89c-0.18,0.66,0.16,0.78,0.19,1.9
				c0.02,0.66,0.06,1.5-0.39,2.33c-0.57,1.06-1.34,1.02-1.87,2.12c-0.1,0.21-0.17,0.69-0.31,1.65c-0.33,2.21-0.25,2.93-0.19,3.31
				c0.06,0.39,0.11,0.68,0.24,1.07c0.24,0.72,0.47,0.87,0.5,1.38c0.02,0.25,0.05,0.7-0.3,1.1c-0.08,0.09-0.47,0.5-1.1,0.52
				c-0.48,0.01-0.86-0.22-0.97-0.29c-0.23-0.15-0.24-0.23-0.59-0.52c-0.29-0.24-0.48-0.35-0.58-0.42c-0.87-0.63-0.17-2.83,0.12-3.73
				c0.19-0.62,0.24-0.62,0.39-1.16c0.27-0.98,0.23-1.41,0.35-2.16c0.16-0.98,0.33-1,1.12-3.41c0.33-0.96,0.48-1.44,0.56-1.74
				c0.37-1.63,0.25-3.02,0-5.8c-0.06-0.55-0.04-1.1-0.12-1.65c-0.12-0.73-0.25-1.02-0.04-1.24c0.33-0.32,1.22-0.27,1.86,0h0.01
				c0.05,0.02,0.11,0.05,0.16,0.09c0.16,0.09,0.28,0.18,0.34,0.22c0.06,0.05,0.12,0.09,0.18,0.14c0.02,0.02,0.05,0.04,0.06,0.06
				c0.06,0.05,0.11,0.11,0.16,0.17C27.93,113.25,28.21,113.96,28.59,114.95z"/>
			<path class="st2" d="M12.98,153.79c0.46,0.29,0.67,0.89,0.5,1.36c-0.11,0.34-0.34,0.34-0.46,0.74c-0.1,0.31,0.02,0.36,0,0.77
				c-0.02,0.38-0.18,0.67-0.47,1.26c-0.25,0.52-0.39,0.63-0.54,0.68c-0.22,0.07-0.33-0.04-0.54,0.03c-0.37,0.11-0.3,0.46-0.63,0.68
				c-0.47,0.31-1.32,0.04-1.56-0.03c-0.51-0.16-0.8-0.41-1.25-0.78c-0.13-0.11-0.64-0.54-1.14-1.22c-0.39-0.56-0.59-1.02-0.67-1.2
				c-0.24-0.61-0.31-1.13-0.35-1.38c-0.06-0.59,0-1.05,0.08-1.52c0.19-1.12,0.41-2.41,1.21-4.09c0.45-0.94,0.87-1.59,1.05-1.87
				c0.31-0.5,0.68-1.11,1.09-1.89l3.39,0.3c-0.12,0.2-0.24,0.43-0.37,0.69c-0.77,1.51-1.04,2.72-1.26,3.7
				c-0.46,2.12-0.4,3.76-0.04,3.83c0.15,0.02,0.25-0.21,0.7-0.29c0.34-0.06,0.64,0,0.75,0.03
				C12.56,153.62,12.78,153.67,12.98,153.79z"/>
		</g>
		<g>
		</g>
	</g>
	<path class="st0" d="M35.76-11.59c-51.97,0-94.1,42.11-94.1,94.05c0,51.94,42.13,94.05,94.1,94.05s94.1-42.11,94.1-94.05
		C129.86,30.51,87.73-11.59,35.76-11.59z M23.03,97.89c-7.79,0-7.78-9.98,0-9.98C30.83,87.91,30.82,97.89,23.03,97.89z M44.16,34.74
		c-3.37,0.76-6.27-0.97-7.44-3.49c-0.8-1.72-1.88-3.31-3-4.87c-0.06,2.3-1.74,4.56-5.1,4.83c0,0.02-0.01,0.04-0.02,0.06
		c0.97,0.32,1.74,0.84,2.31,1.47c1.34,0.85,2.09,2.16,2.23,3.54C35.2,39.23,33.53,44,28.15,44c-3.51,0-5.41-2.02-5.76-4.24
		c-0.26-0.19-0.49-0.41-0.69-0.63c-0.3,0.06-0.62,0.1-0.95,0.12c-0.56,0.14-1.17,0.22-1.84,0.22c-0.15,0-0.29-0.01-0.43-0.02
		c-0.13,0.01-0.26,0.02-0.39,0.02c-7.42,0-7.76-9.05-1.06-9.91c0.03-0.02,0.06-0.04,0.09-0.05c0.31-2.08,1.99-3.99,5.06-4.24
		c0.14-0.65,0.43-1.27,0.85-1.83c-0.09-0.98,0.12-1.99,0.63-2.86c-0.22-1.32,0.13-2.72,1.03-3.81c0.14-1.1,0.71-2.13,1.63-2.92
		c0.07-0.59,0.26-1.15,0.56-1.68c0.01-0.03,0.02-0.06,0.03-0.1c0.08-0.67,0.32-1.32,0.69-1.92c0.8-1.62,2.58-2.88,5.34-2.88
		c4.09,0,6.03,2.76,5.82,5.37c0.82,0.58,1.45,1.42,1.76,2.54c1.33,4.85,5.69,8.8,7.84,13.43C49.56,31.13,47.07,34.08,44.16,34.74z"
		/>
	<g>
		<g>
			<path class="st3" d="M4.1,180.44c-0.79-0.14-1.52-0.36-2.21-0.64c-0.68-0.29-1.31-0.64-1.89-1.07l1.77-1.77
				c0.82,0.51,1.64,0.89,2.45,1.14c0.81,0.25,1.61,0.38,2.41,0.38c1.18,0,2.07-0.15,2.66-0.45c0.59-0.3,0.89-0.74,0.89-1.34
				c0-0.4-0.16-0.69-0.48-0.89c-0.32-0.2-0.72-0.33-1.2-0.4c-0.48-0.07-1.15-0.13-2.02-0.18c-0.08,0-0.16,0-0.25-0.01
				c-0.09,0-0.17-0.01-0.25-0.02c-0.04,0-0.08,0-0.12-0.01s-0.08-0.01-0.12-0.01c-0.99-0.06-1.82-0.18-2.51-0.35
				c-0.68-0.17-1.25-0.49-1.71-0.96c-0.45-0.47-0.68-1.14-0.68-2.01c0-0.87,0.22-1.59,0.66-2.17c0.44-0.58,1.1-1.01,1.97-1.3
				c0.87-0.29,1.96-0.43,3.27-0.43c0.79,0,1.55,0.06,2.27,0.18c0.72,0.12,1.41,0.29,2.06,0.53c0.65,0.23,1.29,0.53,1.89,0.88
				l-1.8,1.77c-0.76-0.4-1.51-0.69-2.25-0.89c-0.74-0.2-1.46-0.3-2.16-0.3c-1.02,0-1.78,0.14-2.29,0.42
				c-0.51,0.28-0.76,0.7-0.76,1.26c0,0.33,0.14,0.58,0.43,0.75c0.29,0.17,0.65,0.28,1.09,0.33s1.07,0.1,1.88,0.14
				c0.06,0.01,0.12,0.01,0.18,0.01c0.06,0,0.13,0,0.2,0.01c0.03,0,0.06,0,0.09,0c0.03,0,0.06,0,0.09,0.01
				c1.07,0.06,1.97,0.17,2.72,0.34c0.75,0.17,1.38,0.52,1.88,1.03c0.51,0.51,0.76,1.26,0.76,2.23c0,0.89-0.23,1.62-0.7,2.2
				s-1.18,1.02-2.12,1.31c-0.94,0.29-2.13,0.44-3.56,0.44C5.73,180.66,4.89,180.59,4.1,180.44z"/>
			<path class="st3" d="M18.79,180.11c-0.79-0.39-1.39-0.96-1.8-1.72s-0.62-1.65-0.62-2.71v-2.72c0-1.06,0.2-1.97,0.6-2.72
				s0.98-1.32,1.75-1.72c0.77-0.39,1.69-0.59,2.76-0.59c0.9,0,1.72,0.19,2.47,0.57c0.75,0.38,1.35,0.91,1.81,1.6l-0.31,2.52
				c0-0.52-0.12-0.97-0.35-1.34c-0.23-0.37-0.57-0.65-1.02-0.85c-0.45-0.19-0.99-0.29-1.62-0.29c-0.99,0-1.75,0.25-2.3,0.75
				c-0.54,0.5-0.81,1.2-0.81,2.1v2.68c0,0.89,0.27,1.58,0.81,2.07s1.31,0.73,2.3,0.73c0.64,0,1.18-0.1,1.62-0.3
				c0.44-0.2,0.78-0.49,1.02-0.87c0.23-0.38,0.35-0.83,0.35-1.37l0.21,2.6c-0.3,0.61-0.8,1.12-1.49,1.53
				c-0.69,0.41-1.54,0.62-2.54,0.62C20.53,180.69,19.58,180.5,18.79,180.11z M25.47,168.16h2.99v17.33h-2.99V168.16z"/>
			<path class="st3" d="M36.01,175.65c0,0.86,0.27,1.53,0.81,2c0.54,0.47,1.31,0.71,2.3,0.71c0.98,0,1.74-0.21,2.27-0.63
				c0.54-0.42,0.81-1.02,0.81-1.79l0.21,2.58c-0.31,0.61-0.82,1.12-1.53,1.53c-0.7,0.41-1.57,0.62-2.6,0.62
				c-1.68,0-2.98-0.44-3.89-1.31c-0.91-0.87-1.37-2.11-1.37-3.7v-7.49h2.99V175.65z M42.19,168.16h2.98v12.32h-2.98V168.16z"/>
			<path class="st3" d="M49.72,163.22h2.99v2.42h-2.99V163.22z M49.72,168.16h2.99v12.32h-2.99V168.16z"/>
			<path class="st3" d="M59.23,180.11c-0.79-0.39-1.39-0.96-1.8-1.72c-0.41-0.75-0.62-1.65-0.62-2.71v-2.72
				c0-1.06,0.2-1.97,0.6-2.72s0.99-1.32,1.75-1.72s1.69-0.59,2.76-0.59c0.9,0,1.72,0.19,2.47,0.57s1.35,0.91,1.81,1.6l-0.31,2.52
				c0-0.52-0.12-0.97-0.35-1.34c-0.23-0.37-0.57-0.65-1.02-0.85c-0.44-0.19-0.98-0.29-1.62-0.29c-0.99,0-1.75,0.25-2.29,0.75
				c-0.54,0.5-0.81,1.2-0.81,2.1v2.68c0,0.89,0.27,1.58,0.81,2.07c0.54,0.49,1.31,0.73,2.29,0.73c0.64,0,1.18-0.1,1.62-0.3
				c0.45-0.2,0.79-0.49,1.02-0.87s0.35-0.83,0.35-1.37l0.21,2.6c-0.3,0.61-0.8,1.12-1.49,1.53c-0.69,0.41-1.54,0.62-2.54,0.62
				C60.97,180.69,60.02,180.5,59.23,180.11z M65.91,163.22h2.99v17.26h-2.99V163.22z"/>
		</g>
	</g>
</g>
</svg>
